<svg width="134" height="134" viewBox="0 0 134 134" fill="none" xmlns="http://www.w3.org/2000/svg">
<g filter="url(#filter0_di_158_85)">
<path fill-rule="evenodd" clip-rule="evenodd" d="M121.716 53.37H115.406C115.214 53.3724 115.026 53.3138 114.869 53.2026C114.712 53.0914 114.594 52.9333 114.533 52.751C113.734 50.4094 112.761 48.1311 111.622 45.9351C111.534 45.7624 111.504 45.5659 111.535 45.3747C111.566 45.1835 111.658 45.0075 111.797 44.8719L116.301 40.3569C117.294 39.3629 117.851 38.0153 117.851 36.6103C117.851 35.2053 117.294 33.8577 116.301 32.8637L102.852 19.3411C101.859 18.3481 100.512 17.7904 99.1076 17.7904C97.7034 17.7904 96.3566 18.3481 95.3631 19.3411L90.7271 23.9798C90.5921 24.1167 90.4174 24.2073 90.2278 24.2387C90.0382 24.2701 89.8436 24.2405 89.6718 24.1544C87.512 23.0778 85.2767 22.1603 82.9835 21.409C82.8006 21.3478 82.6416 21.2303 82.5292 21.0734C82.4168 20.9165 82.3568 20.7284 82.3576 20.5354V13.9816C82.3556 12.5762 81.7969 11.2287 80.8037 10.235C79.8105 9.24118 78.4639 8.68198 77.0593 8.68005H57.9914C56.5868 8.68198 55.2403 9.24118 54.2471 10.235C53.2539 11.2287 52.695 12.5762 52.6931 13.9816V20.5354C52.695 20.7287 52.6354 20.9174 52.5229 21.0745C52.4104 21.2316 52.2508 21.3488 52.0673 21.409C49.7751 22.1628 47.5399 23.0803 45.379 24.1544C45.2072 24.2405 45.0125 24.2701 44.8229 24.2387C44.6333 24.2073 44.4585 24.1167 44.3236 23.9798L39.6877 19.3411C38.6943 18.3481 37.3475 17.7904 35.9433 17.7904C34.539 17.7904 33.1922 18.3481 32.1988 19.3411L18.7129 32.8345C17.7205 33.8286 17.1631 35.1761 17.1631 36.5812C17.1631 37.9862 17.7205 39.3337 18.7129 40.3278L23.2253 44.8428C23.3625 44.9792 23.4527 45.1558 23.4828 45.347C23.5129 45.5382 23.4813 45.7339 23.3926 45.9059C22.2534 48.102 21.2803 50.3803 20.4815 52.7218C20.4204 52.9029 20.3038 53.0602 20.1483 53.1713C19.9929 53.2824 19.8064 53.3417 19.6154 53.3409H13.2983C11.8937 53.3428 10.5471 53.902 9.55391 54.8958C8.56071 55.8895 8.00193 57.237 8 58.6424V77.7211C8.00193 79.1265 8.56071 80.4736 9.55391 81.4674C10.5471 82.4612 11.8937 83.0207 13.2983 83.0227H19.3461C19.5436 83.0234 19.7357 83.0875 19.8942 83.2054C20.0527 83.3234 20.1693 83.4886 20.2268 83.6776C20.9997 86.0953 21.9583 88.4495 23.0942 90.7193C23.1798 90.8945 23.2096 91.0919 23.1797 91.2847C23.1498 91.4773 23.0615 91.6564 22.9268 91.7974L18.6839 96.0358C17.6915 97.0298 17.134 98.377 17.134 99.782C17.134 101.187 17.6915 102.535 18.6839 103.529L32.1697 117.022C33.1631 118.015 34.5099 118.573 35.9141 118.573C37.3183 118.573 38.6651 118.015 39.6586 117.022L43.7705 112.908C43.9105 112.769 44.0914 112.679 44.2865 112.65C44.4816 112.621 44.6807 112.655 44.8549 112.747C47.1634 113.931 49.5602 114.934 52.0236 115.748C52.2099 115.806 52.3726 115.922 52.4879 116.079C52.6032 116.236 52.6651 116.427 52.6641 116.622V122.447C52.6661 123.853 53.2248 125.2 54.218 126.194C55.2112 127.187 56.5577 127.747 57.9622 127.749H77.0303C78.4355 127.749 79.7831 127.19 80.7767 126.196C81.7703 125.202 82.3284 123.853 82.3284 122.447V116.622C82.3297 116.427 82.3924 116.238 82.5073 116.081C82.6223 115.924 82.7839 115.808 82.969 115.748C85.4347 114.934 87.834 113.931 90.145 112.747C90.3181 112.656 90.516 112.622 90.7098 112.651C90.9037 112.68 91.0832 112.77 91.2221 112.908L95.334 117.022C96.3274 118.015 97.6742 118.573 99.0784 118.573C100.483 118.573 101.829 118.015 102.823 117.022L116.309 103.529C117.301 102.535 117.858 101.187 117.858 99.782C117.858 98.377 117.301 97.0298 116.309 96.0358L112.073 91.7974C111.935 91.6587 111.844 91.4798 111.814 91.2861C111.783 91.0924 111.816 90.8935 111.906 90.7193C113.038 88.4488 113.994 86.0947 114.766 83.6776C114.823 83.4886 114.94 83.3234 115.098 83.2054C115.257 83.0875 115.449 83.0234 115.646 83.0227H121.716C123.121 83.0227 124.469 82.4637 125.463 81.4695C126.456 80.4753 127.014 79.1271 127.014 77.7211V58.6641C127.011 57.2599 126.451 55.9146 125.458 54.9224C124.465 53.9302 123.119 53.372 121.716 53.37ZM122.648 77.7503C122.648 77.8727 122.624 77.9942 122.577 78.1073C122.53 78.2204 122.461 78.323 122.375 78.4095C122.288 78.4961 122.186 78.5646 122.073 78.6115C121.96 78.6583 121.838 78.6826 121.716 78.6826H115.668C114.545 78.6806 113.451 79.0375 112.545 79.7017C111.639 80.3658 110.969 81.302 110.632 82.3741C109.926 84.5784 109.052 86.7258 108.019 88.7971C107.521 89.791 107.348 90.9166 107.525 92.0143C107.701 93.112 108.218 94.1266 109.002 94.9143L113.245 99.152C113.419 99.3268 113.518 99.564 113.518 99.8112C113.518 100.058 113.419 100.296 113.245 100.47L99.759 113.964C99.5833 114.137 99.3467 114.234 99.1003 114.234C98.8539 114.234 98.6173 114.137 98.4416 113.964L94.3297 109.85C93.5372 109.055 92.5126 108.534 91.4044 108.361C90.2962 108.188 89.1617 108.373 88.1652 108.888C86.0585 109.972 83.8681 110.886 81.6152 111.619C80.5556 111.966 79.6331 112.64 78.9795 113.544C78.3259 114.448 77.9746 115.535 77.9763 116.651V122.477C77.9763 122.599 77.9522 122.72 77.9054 122.834C77.8586 122.947 77.79 123.049 77.7035 123.136C77.617 123.222 77.5143 123.291 77.4013 123.338C77.2883 123.385 77.1672 123.409 77.0449 123.409H57.9768C57.8545 123.409 57.7334 123.385 57.6204 123.338C57.5074 123.291 57.4047 123.222 57.3181 123.136C57.2316 123.049 57.1631 122.947 57.1163 122.834C57.0695 122.72 57.0452 122.599 57.0452 122.477V116.651C57.0469 115.535 56.6958 114.448 56.0422 113.544C55.3886 112.64 54.4659 111.966 53.4063 111.619C51.1539 110.884 48.9636 109.971 46.8563 108.888C45.8598 108.373 44.7255 108.188 43.6173 108.361C42.5091 108.534 41.4845 109.055 40.692 109.85L36.5801 113.964C36.4044 114.137 36.1678 114.234 35.9214 114.234C35.6749 114.234 35.4384 114.137 35.2627 113.964L21.777 100.47C21.6058 100.294 21.51 100.057 21.51 99.8112C21.51 99.5651 21.6058 99.3286 21.777 99.152L26.0199 94.9143C26.805 94.1272 27.3225 93.1123 27.4988 92.0143C27.6752 90.9163 27.5015 89.7907 27.0024 88.7971C25.9705 86.7262 25.0995 84.5787 24.397 82.3741C24.058 81.302 23.3862 80.3663 22.4792 79.7024C21.5722 79.0384 20.4772 78.6813 19.3534 78.6826H13.3056C13.1832 78.6826 13.0621 78.6583 12.949 78.6115C12.836 78.5646 12.7333 78.4961 12.6468 78.4095C12.5603 78.323 12.4917 78.2204 12.4449 78.1073C12.3981 77.9942 12.374 77.8727 12.374 77.7503V58.6641C12.374 58.4169 12.4721 58.1797 12.6468 58.0049C12.8215 57.8301 13.0585 57.7321 13.3056 57.7321H19.6227C20.7279 57.7339 21.8058 57.3882 22.7042 56.744C23.6026 56.0999 24.2762 55.1897 24.6298 54.142C25.3456 52.0084 26.2214 49.9318 27.2498 47.9302C27.7641 46.9343 27.9482 45.8007 27.7755 44.6931C27.6028 43.5855 27.0822 42.5614 26.2892 41.7696L21.777 37.2621C21.6041 37.0863 21.5072 36.8498 21.5072 36.6032C21.5072 36.3566 21.6041 36.1197 21.777 35.944L35.2627 22.4505C35.4384 22.2775 35.6749 22.1806 35.9214 22.1806C36.1678 22.1806 36.4044 22.2775 36.5801 22.4505L41.2159 27.0893C41.9975 27.8754 43.0068 28.3946 44.1004 28.5738C45.194 28.7529 46.3163 28.5824 47.3076 28.0866C49.2764 27.1032 51.3148 26.266 53.4063 25.5816C54.4653 25.2357 55.3878 24.5635 56.0415 23.6609C56.6952 22.7583 57.0465 21.6718 57.0452 20.5571V14.0033C57.0452 13.8809 57.0695 13.7597 57.1163 13.6466C57.1631 13.5335 57.2316 13.431 57.3181 13.3444C57.4047 13.2578 57.5074 13.1889 57.6204 13.1421C57.7334 13.0952 57.8545 13.0713 57.9768 13.0713H77.0449C77.2919 13.0713 77.5288 13.1696 77.7035 13.3444C77.8782 13.5192 77.9763 13.7561 77.9763 14.0033V20.5571C77.9739 21.672 78.3249 22.7591 78.9788 23.6619C79.6326 24.5647 80.5556 25.2367 81.6152 25.5816C83.7044 26.266 85.7405 27.1033 87.7068 28.0866C88.6978 28.5835 89.8203 28.7547 90.9142 28.5755C92.008 28.3964 93.0173 27.8763 93.7983 27.0893L98.4416 22.4505C98.5277 22.3647 98.6299 22.2969 98.7423 22.2507C98.8547 22.2044 98.975 22.1806 99.0966 22.181C99.3415 22.1826 99.5764 22.2792 99.7517 22.4505L113.238 35.944C113.412 36.1188 113.51 36.356 113.51 36.6032C113.51 36.8504 113.412 37.0873 113.238 37.2621L108.732 41.7696C107.936 42.5593 107.413 43.5831 107.239 44.6913C107.065 45.7995 107.249 46.9341 107.765 47.9302C108.792 49.933 109.67 52.0094 110.392 54.142C110.744 55.1903 111.418 56.1012 112.316 56.7454C113.215 57.3897 114.294 57.735 115.399 57.7321H121.716C121.963 57.7321 122.2 57.8301 122.375 58.0049C122.549 58.1797 122.648 58.4169 122.648 58.6641V77.7503ZM47.1474 38.8937C53.1235 34.7224 60.2389 32.4948 67.5254 32.5144C76.9811 32.5318 86.0442 36.3002 92.7277 42.993C99.4112 49.6859 103.17 58.7572 103.179 68.2185C103.196 73.4083 102.067 78.5376 99.8753 83.2412C99.7886 83.4308 99.6491 83.5911 99.4736 83.7035C99.298 83.8158 99.0938 83.8756 98.8854 83.8748C98.7269 83.876 98.5702 83.8414 98.427 83.7732C98.2962 83.7128 98.1787 83.6267 98.0811 83.5207C97.9835 83.4147 97.9078 83.2906 97.8584 83.1552C97.8091 83.0198 97.7868 82.876 97.7932 82.7321C97.7996 82.5881 97.8345 82.4472 97.8958 82.3167C100.99 75.6766 101.823 68.2041 100.268 61.0449C98.7121 53.8856 94.8536 47.4341 89.2834 42.6787C83.7131 37.9233 76.7384 35.1262 69.4276 34.7161C62.1169 34.306 54.8733 36.3057 48.8068 40.4084C49.8365 41.7295 50.3329 43.389 50.1977 45.0589C50.0625 46.7287 49.3055 48.2872 48.0767 49.4252C46.8479 50.5633 45.2369 51.1981 43.5625 51.2042C41.8882 51.2102 40.2725 50.5871 39.0356 49.458C37.7986 48.3288 37.0304 46.7761 36.8831 45.1072C36.7359 43.4384 37.2203 41.7749 38.2404 40.4464C39.2606 39.1179 40.7419 38.2212 42.3914 37.9336C44.041 37.646 45.7384 37.9887 47.1474 38.8937ZM41.1391 48.1779C41.8706 48.6671 42.7305 48.9282 43.6103 48.9282C44.7884 48.9282 45.9184 48.4603 46.7521 47.6275C47.5858 46.7947 48.0552 45.6648 48.0572 44.486C48.0586 43.6057 47.799 42.745 47.3113 42.0124C46.8235 41.2797 46.1296 40.7082 45.3171 40.3703C44.5047 40.0325 43.6104 39.9435 42.7473 40.1143C41.8843 40.2852 41.0912 40.7081 40.4686 41.33C39.846 41.952 39.4218 42.7449 39.2497 43.6081C39.0775 44.4714 39.1651 45.3665 39.5015 46.18C39.8378 46.9934 40.4077 47.6887 41.1391 48.1779ZM62.9184 89.4742H62.6638C61.9854 89.4768 61.3141 89.3358 60.6944 89.0596C60.0746 88.7834 59.5204 88.379 59.0684 87.8727L46.143 73.3882C45.7222 72.9178 45.3989 72.3687 45.1915 71.7725C44.9841 71.1763 44.8969 70.5452 44.9349 69.915C45.0082 68.6449 45.5816 67.4556 46.5298 66.6079C47.478 65.7602 48.7234 65.3233 49.993 65.3929C50.6228 65.427 51.2397 65.5853 51.808 65.859C52.3763 66.1327 52.8849 66.5164 53.3044 66.9876L62.2344 77.0001L79.4245 52.9259C79.9755 52.1518 80.7438 51.5587 81.632 51.222C82.5202 50.8853 83.4885 50.8201 84.4138 51.0346C85.3391 51.2491 86.1798 51.7334 86.8296 52.4267C87.4793 53.1199 87.9088 53.9908 88.0634 54.9285C88.1696 55.5497 88.151 56.1859 88.0085 56.7998C87.866 57.4137 87.6027 57.9928 87.2338 58.5037L66.5574 87.4716C66.1411 88.0585 65.5975 88.5436 64.9673 88.8904C64.3371 89.2372 63.6367 89.4367 62.9184 89.4742ZM47.9989 68.2328C47.4806 68.6956 47.1666 69.3449 47.1256 70.0388C47.087 70.7236 47.3197 71.3962 47.7732 71.9105L60.6987 86.3943C60.9559 86.6893 61.2773 86.9212 61.6381 87.0727C61.9989 87.2242 62.3896 87.2913 62.7802 87.2682C63.1742 87.2485 63.5585 87.1388 63.904 86.9482C64.2495 86.7577 64.5472 86.4909 64.7743 86.1681L85.4506 57.2077C85.8481 56.643 86.0076 55.9447 85.8946 55.2634C85.7816 54.5821 85.4052 53.9725 84.8466 53.5666C84.2815 53.1696 83.5827 53.0112 82.9017 53.1257C82.2207 53.2402 81.6122 53.6182 81.2077 54.1782L62.4309 80.474L51.6888 68.4366C51.4599 68.1802 51.1826 67.9716 50.8729 67.8228C50.5631 67.6741 50.227 67.5883 49.8839 67.57H49.7384C49.0966 67.5677 48.4766 67.804 47.9989 68.2328ZM86.364 88.0453C87.6068 86.8032 89.2909 86.1044 91.0475 86.1025C92.0953 86.1025 93.1281 86.3514 94.0611 86.8285C94.9942 87.3057 95.8009 87.9977 96.4147 88.8474C97.0286 89.6971 97.4321 90.6807 97.5922 91.7169C97.7524 92.753 97.6646 93.8119 97.336 94.8074C97.0074 95.803 96.4473 96.7068 95.7019 97.4436C94.9564 98.1805 94.0469 98.7298 93.048 99.0465C92.0491 99.3633 90.9893 99.4383 89.9558 99.2655C88.9223 99.0928 87.9445 98.6768 87.1028 98.0524C80.7837 102.218 73.3043 104.265 65.746 103.896C58.1878 103.527 50.9427 100.762 45.0587 96.0007C39.1748 91.2396 34.9569 84.7291 33.0153 77.411C31.0738 70.0928 31.5093 62.3468 34.2586 55.2926C34.3628 55.0222 34.57 54.8041 34.8348 54.6867C35.0996 54.5692 35.4002 54.5618 35.6704 54.6661C35.9406 54.7704 36.1584 54.9779 36.2758 55.2428C36.3931 55.5077 36.4004 55.8087 36.2962 56.0791C33.7245 62.6698 33.3044 69.9061 35.0963 76.7503C36.8882 83.5946 40.8001 89.6954 46.2709 94.1781C51.7417 98.6608 58.4907 101.295 65.55 101.703C72.6094 102.112 79.6167 100.272 85.5673 96.4502C84.8159 95.3551 84.4149 94.0578 84.4173 92.7295C84.4212 90.9719 85.1212 89.2874 86.364 88.0453ZM88.5749 96.4324C89.3071 96.9204 90.1677 97.1798 91.0475 97.1784C92.225 97.1745 93.3531 96.7044 94.185 95.8706C95.0169 95.0368 95.4849 93.9077 95.4869 92.7295C95.4869 91.8492 95.226 90.9887 94.737 90.2569C94.2481 89.5251 93.553 88.9543 92.7401 88.6177C91.9271 88.2812 91.0327 88.1937 90.1699 88.366C89.3071 88.5383 88.5149 88.9626 87.8933 89.5856C87.2717 90.2086 86.8487 91.0019 86.6779 91.8655C86.5072 92.729 86.5963 93.6241 86.934 94.437C87.2717 95.2498 87.8427 95.9444 88.5749 96.4324Z" fill="url(#paint0_linear_158_85)"/>
</g>
<defs>
<filter id="filter0_di_158_85" x="0" y="0.680054" width="131.014" height="131.069" filterUnits="userSpaceOnUse" color-interpolation-filters="sRGB">
<feFlood flood-opacity="0" result="BackgroundImageFix"/>
<feColorMatrix in="SourceAlpha" type="matrix" values="0 0 0 0 0 0 0 0 0 0 0 0 0 0 0 0 0 0 127 0" result="hardAlpha"/>
<feOffset dx="-2" dy="-2"/>
<feGaussianBlur stdDeviation="3"/>
<feComposite in2="hardAlpha" operator="out"/>
<feColorMatrix type="matrix" values="0 0 0 0 1 0 0 0 0 1 0 0 0 0 1 0 0 0 1 0"/>
<feBlend mode="normal" in2="BackgroundImageFix" result="effect1_dropShadow_158_85"/>
<feBlend mode="normal" in="SourceGraphic" in2="effect1_dropShadow_158_85" result="shape"/>
<feColorMatrix in="SourceAlpha" type="matrix" values="0 0 0 0 0 0 0 0 0 0 0 0 0 0 0 0 0 0 127 0" result="hardAlpha"/>
<feOffset dx="1" dy="1"/>
<feGaussianBlur stdDeviation="1"/>
<feComposite in2="hardAlpha" operator="arithmetic" k2="-1" k3="1"/>
<feColorMatrix type="matrix" values="0 0 0 0 0.116521 0 0 0 0 0.0102778 0 0 0 0 0.154167 0 0 0 0.25 0"/>
<feBlend mode="normal" in2="shape" result="effect2_innerShadow_158_85"/>
</filter>
<linearGradient id="paint0_linear_158_85" x1="21.2611" y1="34.6687" x2="71.8566" y2="139.587" gradientUnits="userSpaceOnUse">
<stop stop-color="#07CEAA"/>
<stop offset="1" stop-color="#088C6D"/>
</linearGradient>
</defs>
</svg>
