<svg width="138" height="137" viewBox="0 0 138 137" fill="none" xmlns="http://www.w3.org/2000/svg">
<g filter="url(#filter0_di_158_96)">
<path fill-rule="evenodd" clip-rule="evenodd" d="M40.143 46.7689V52.8427H45.22V64.7277H47.628V52.8427H52.705V46.6012C53.8206 46.2415 54.7939 45.5352 55.4847 44.5839C56.1755 43.6326 56.5482 42.4854 56.549 41.3076V12.4628C56.5481 11.7285 56.4026 11.0017 56.1209 10.3242C55.8392 9.64669 55.4268 9.03198 54.9077 8.51547C54.3885 7.99897 53.7728 7.5909 53.096 7.31479C52.4191 7.03868 51.6947 6.89999 50.9643 6.90673H41.1366C39.6714 6.90866 38.2668 7.49465 37.2308 8.53619C36.1947 9.57774 35.6118 10.9898 35.6099 12.4628V41.3076C35.6109 42.6072 36.065 43.8653 36.8932 44.8631C37.7214 45.8609 38.8714 46.5353 40.143 46.7689ZM47.5989 50.6552H42.3188V46.8637H50.4711V50.6552H47.5989ZM39.9617 12.4628C39.9617 12.1495 40.0854 11.8491 40.3058 11.6275C40.5261 11.406 40.825 11.2816 41.1366 11.2816H50.9643C51.2759 11.2816 51.5748 11.406 51.7951 11.6275C52.0155 11.8491 52.1393 12.1495 52.1393 12.4628V41.3076C52.1402 41.463 52.1105 41.6171 52.0518 41.7608C51.9931 41.9046 51.9066 42.0352 51.7973 42.145C51.688 42.2549 51.5581 42.3419 51.4151 42.4009C51.2721 42.4599 51.1189 42.4898 50.9643 42.4888H41.1366C40.9821 42.4898 40.8288 42.4599 40.6858 42.4009C40.5429 42.3419 40.4129 42.2549 40.3036 42.145C40.1944 42.0352 40.1078 41.9046 40.0491 41.7608C39.9904 41.6171 39.9607 41.463 39.9617 41.3076V12.4628ZM87.9323 47.498V52.8427H93.0093V64.7277H95.4245V52.8427H100.502V47.3303C101.617 46.9707 102.59 46.2643 103.281 45.313C103.972 44.3617 104.345 43.2146 104.346 42.0368V12.4628C104.345 11.7285 104.199 11.0017 103.917 10.3242C103.636 9.64669 103.223 9.03198 102.704 8.51547C102.185 7.99897 101.569 7.5909 100.893 7.31479C100.216 7.03868 99.4912 6.89999 98.7608 6.90673H88.9259C87.4607 6.90866 86.0561 7.49465 85.0201 8.53619C83.984 9.57774 83.4012 10.9898 83.3992 12.4628V42.0368C83.4002 43.3363 83.8543 44.5944 84.6825 45.5922C85.5107 46.59 86.6607 47.2644 87.9323 47.498ZM95.3955 50.6552H90.1082V47.5928H98.2677V50.6552H95.3955ZM87.751 12.4628C87.7529 12.1501 87.8773 11.8508 88.0972 11.6297C88.3171 11.4086 88.6149 11.2835 88.9259 11.2816H98.7608C99.0731 11.2816 99.3727 11.4058 99.5942 11.6271C99.8158 11.8484 99.9412 12.1488 99.9431 12.4628V42.0368C99.9431 42.35 99.8193 42.6505 99.5989 42.872C99.3786 43.0935 99.0797 43.218 98.7681 43.218H88.9259C88.6143 43.218 88.3155 43.0935 88.0951 42.872C87.8748 42.6505 87.751 42.35 87.751 42.0368V12.4628ZM109.096 85.7925H115.399C120.634 85.8927 125.62 88.0536 129.287 91.8105C132.953 95.5675 135.007 100.621 135.007 105.884C135.007 111.147 132.953 116.2 129.287 119.957C125.62 123.714 120.634 125.875 115.399 125.975H26.3697C23.7132 126.026 21.0732 125.544 18.6041 124.557C16.1351 123.571 13.8865 122.099 11.9899 120.228C10.0933 118.357 8.58669 116.125 7.55821 113.662C6.52973 111.199 6 108.555 6 105.884C6 103.213 6.52973 100.568 7.55821 98.1056C8.58669 95.6426 10.0933 93.4106 11.9899 91.5399C13.8865 89.6691 16.1351 88.1973 18.6041 87.2105C21.0732 86.2237 23.7132 85.7416 26.3697 85.7925H31.7006V75.5845H61.7494V85.7925H79.0403V75.5845H109.096V85.7925ZM104.745 79.9593H83.392V85.5591H104.745V79.9593ZM57.3976 79.9593H36.0523V85.5591H57.3976V79.9593ZM26.3697 121.593H115.399C119.487 121.505 123.378 119.81 126.238 116.872C129.098 113.934 130.7 109.987 130.7 105.877C130.7 101.766 129.098 97.8189 126.238 94.8811C123.378 91.9433 119.487 90.2485 115.399 90.16H26.3697C24.2884 90.115 22.219 90.4882 20.283 91.2577C18.347 92.0273 16.5833 93.1778 15.0955 94.6417C13.6076 96.1056 12.4255 97.8534 11.6185 99.7827C10.8114 101.712 10.3957 103.784 10.3957 105.877C10.3957 107.97 10.8114 110.041 11.6185 111.971C12.4255 113.9 13.6076 115.648 15.0955 117.112C16.5833 118.576 18.347 119.726 20.283 120.496C22.219 121.265 24.2884 121.638 26.3697 121.593ZM30.8883 97.765C29.2638 97.7636 27.6755 98.2466 26.3242 99.153C24.9729 100.059 23.9195 101.348 23.2971 102.857C22.6748 104.365 22.5116 106.026 22.8282 107.627C23.1447 109.229 23.9268 110.701 25.0755 111.855C26.2242 113.01 27.6878 113.796 29.2811 114.115C30.8744 114.433 32.5258 114.269 34.0263 113.643C35.5268 113.018 36.809 111.958 37.7107 110.6C38.6123 109.242 39.0927 107.645 39.0913 106.012C39.0875 103.826 38.222 101.73 36.6845 100.185C35.1469 98.6389 33.0627 97.7689 30.8883 97.765ZM30.8883 112.078C29.6945 112.08 28.5271 111.725 27.5338 111.059C26.5405 110.394 25.7659 109.447 25.3081 108.338C24.8502 107.23 24.7297 106.01 24.9617 104.833C25.1937 103.655 25.7679 102.574 26.6115 101.725C27.4551 100.875 28.5304 100.297 29.7011 100.062C30.8719 99.8276 32.0856 99.9473 33.1886 100.406C34.2917 100.865 35.2346 101.643 35.898 102.641C36.5613 103.638 36.9154 104.811 36.9154 106.012C36.9135 107.619 36.2781 109.16 35.1485 110.297C34.0188 111.434 32.4869 112.074 30.8883 112.078ZM52.9858 99.153C54.3371 98.2466 55.9255 97.7636 57.5499 97.765C59.7249 97.7669 61.8103 98.6364 63.3482 100.183C64.8862 101.729 65.751 103.825 65.7529 106.012C65.7544 107.645 65.2739 109.242 64.3723 110.6C63.4707 111.958 62.1885 113.018 60.6879 113.643C59.1874 114.269 57.536 114.433 55.9427 114.115C54.3494 113.796 52.8858 113.01 51.7371 111.855C50.5885 110.701 49.8064 109.229 49.4898 107.627C49.1732 106.026 49.3364 104.365 49.9588 102.857C50.5811 101.348 51.6345 100.059 52.9858 99.153ZM54.1954 111.059C55.1887 111.725 56.3561 112.08 57.5499 112.078C59.1491 112.076 60.6821 111.436 61.8122 110.299C62.9423 109.161 63.5771 107.619 63.5771 106.012C63.5771 104.811 63.223 103.638 62.5596 102.641C61.8962 101.643 60.9533 100.865 59.8502 100.406C58.7472 99.9473 57.5335 99.8276 56.3627 100.062C55.192 100.297 54.1168 100.875 53.2731 101.725C52.4295 102.574 51.8554 103.655 51.6233 104.833C51.3913 106.01 51.5118 107.23 51.9697 108.338C52.4275 109.447 53.2021 110.394 54.1954 111.059ZM84.2116 97.765C82.5874 97.765 80.9998 98.2493 79.6494 99.1566C78.2991 100.064 77.2468 101.353 76.6256 102.862C76.0044 104.371 75.8422 106.031 76.1596 107.632C76.477 109.233 77.2596 110.704 78.4086 111.858C79.5575 113.012 81.0212 113.797 82.6143 114.115C84.2074 114.433 85.8584 114.268 87.3586 113.642C88.8587 113.017 90.1404 111.958 91.0417 110.599C91.943 109.241 92.4233 107.644 92.4219 106.012C92.42 103.824 91.5541 101.726 90.0146 100.18C88.4751 98.6336 86.3878 97.765 84.2116 97.765ZM84.2116 112.078C83.0181 112.078 81.8514 111.722 80.859 111.056C79.8667 110.389 79.0932 109.442 78.6365 108.333C78.1798 107.225 78.0603 106.005 78.2931 104.828C78.5259 103.651 79.1007 102.57 79.9446 101.722C80.7885 100.874 81.8638 100.296 83.0343 100.062C84.2049 99.8276 85.4182 99.9478 86.5209 100.407C87.6235 100.866 88.5659 101.644 89.229 102.641C89.8921 103.639 90.246 104.812 90.246 106.012C90.246 107.621 89.6102 109.164 88.4786 110.301C87.3469 111.439 85.812 112.078 84.2116 112.078ZM106.316 99.153C107.668 98.2466 109.256 97.7636 110.88 97.765C113.055 97.7689 115.139 98.6389 116.677 100.185C118.214 101.73 119.08 103.826 119.083 106.012C119.085 107.645 118.604 109.242 117.703 110.6C116.801 111.958 115.519 113.018 114.018 113.643C112.518 114.269 110.867 114.433 109.273 114.115C107.68 113.796 106.216 113.01 105.068 111.855C103.919 110.701 103.137 109.229 102.82 107.627C102.504 106.026 102.667 104.365 103.289 102.857C103.912 101.348 104.965 100.059 106.316 99.153ZM107.526 111.059C108.519 111.725 109.687 112.08 110.88 112.078C112.479 112.074 114.011 111.434 115.141 110.297C116.27 109.16 116.906 107.619 116.908 106.012C116.908 104.811 116.554 103.638 115.89 102.641C115.227 101.643 114.284 100.865 113.181 100.406C112.078 99.9473 110.864 99.8276 109.693 100.062C108.523 100.297 107.447 100.875 106.604 101.725C105.76 102.574 105.186 103.655 104.954 104.833C104.722 106.01 104.842 107.23 105.3 108.338C105.758 109.447 106.533 110.394 107.526 111.059Z" fill="url(#paint0_linear_158_96)"/>
</g>
<defs>
<filter id="filter0_di_158_96" x="0" y="0.906494" width="137.007" height="127.073" filterUnits="userSpaceOnUse" color-interpolation-filters="sRGB">
<feFlood flood-opacity="0" result="BackgroundImageFix"/>
<feColorMatrix in="SourceAlpha" type="matrix" values="0 0 0 0 0 0 0 0 0 0 0 0 0 0 0 0 0 0 127 0" result="hardAlpha"/>
<feOffset dx="-2" dy="-2"/>
<feGaussianBlur stdDeviation="2"/>
<feComposite in2="hardAlpha" operator="out"/>
<feColorMatrix type="matrix" values="0 0 0 0 1 0 0 0 0 1 0 0 0 0 1 0 0 0 1 0"/>
<feBlend mode="normal" in2="BackgroundImageFix" result="effect1_dropShadow_158_96"/>
<feBlend mode="normal" in="SourceGraphic" in2="effect1_dropShadow_158_96" result="shape"/>
<feColorMatrix in="SourceAlpha" type="matrix" values="0 0 0 0 0 0 0 0 0 0 0 0 0 0 0 0 0 0 127 0" result="hardAlpha"/>
<feOffset dx="1" dy="1"/>
<feGaussianBlur stdDeviation="1"/>
<feComposite in2="hardAlpha" operator="arithmetic" k2="-1" k3="1"/>
<feColorMatrix type="matrix" values="0 0 0 0 0 0 0 0 0 0 0 0 0 0 0 0 0 0 0.25 0"/>
<feBlend mode="normal" in2="shape" result="effect2_innerShadow_158_96"/>
</filter>
<linearGradient id="paint0_linear_158_96" x1="20.3746" y1="32.896" x2="68.4029" y2="140.849" gradientUnits="userSpaceOnUse">
<stop stop-color="#07CEAA"/>
<stop offset="1" stop-color="#088C6D"/>
</linearGradient>
</defs>
</svg>
