<svg width="132" height="132" viewBox="0 0 132 132" fill="none" xmlns="http://www.w3.org/2000/svg">
<g filter="url(#filter0_di_158_87)">
<path fill-rule="evenodd" clip-rule="evenodd" d="M125.679 48.0471C125.474 48.2526 125.195 48.3681 124.905 48.3681H112.764V58.5948H124.905C125.195 58.5948 125.474 58.7103 125.679 58.9158C125.885 59.1212 126 59.3999 126 59.6906C126 59.9812 125.885 60.2599 125.679 60.4653C125.474 60.6708 125.195 60.7863 124.905 60.7863H112.764V71.0131H124.905C125.195 71.0131 125.474 71.1285 125.679 71.334C125.885 71.5395 126 71.8182 126 72.1088C126 72.3994 125.885 72.6781 125.679 72.8836C125.474 73.0891 125.195 73.2045 124.905 73.2045H112.764V83.4313H124.905C125.195 83.4313 125.474 83.5467 125.679 83.7522C125.885 83.9577 126 84.2364 126 84.527C126 84.8176 125.885 85.0963 125.679 85.3018C125.474 85.5073 125.195 85.6227 124.905 85.6227H112.764V95.8495H124.905C125.195 95.8495 125.474 95.9649 125.679 96.1704C125.885 96.3759 126 96.6546 126 96.9452C126 97.2358 125.885 97.5145 125.679 97.72C125.474 97.9255 125.195 98.0409 124.905 98.0409H112.764V104.929C112.76 106.687 112.06 108.371 110.818 109.613C109.575 110.855 107.891 111.553 106.135 111.555H98.9877V123.973C98.9877 124.264 98.8724 124.542 98.667 124.748C98.4616 124.953 98.1831 125.069 97.8926 125.069C97.6022 125.069 97.3237 124.953 97.1183 124.748C96.9129 124.542 96.7975 124.264 96.7975 123.973V111.555H86.5767V123.973C86.5767 124.264 86.4613 124.542 86.2559 124.748C86.0506 124.953 85.772 125.069 85.4816 125.069C85.1912 125.069 84.9126 124.953 84.7072 124.748C84.5019 124.542 84.3865 124.264 84.3865 123.973V111.555H74.1656V123.973C74.1656 124.264 74.0503 124.542 73.8449 124.748C73.6395 124.953 73.361 125.069 73.0705 125.069C72.7801 125.069 72.5016 124.953 72.2962 124.748C72.0908 124.542 71.9755 124.264 71.9755 123.973V111.555H61.7546V123.973C61.7546 124.264 61.6392 124.542 61.4339 124.748C61.2285 124.953 60.9499 125.069 60.6595 125.069C60.3691 125.069 60.0905 124.953 59.8852 124.748C59.6798 124.542 59.5644 124.264 59.5644 123.973V111.555H49.3436V123.973C49.3436 124.264 49.2282 124.542 49.0228 124.748C48.8174 124.953 48.5389 125.069 48.2485 125.069C47.958 125.069 47.6795 124.953 47.4741 124.748C47.2687 124.542 47.1534 124.264 47.1534 123.973V111.555H36.9325V123.973C36.9325 124.264 36.8171 124.542 36.6118 124.748C36.4064 124.953 36.1279 125.069 35.8374 125.069C35.547 125.069 35.2684 124.953 35.0631 124.748C34.8577 124.542 34.7423 124.264 34.7423 123.973V111.555H27.2738C25.5182 111.553 23.8351 110.854 22.5937 109.612C21.3523 108.37 20.6541 106.686 20.6521 104.929V97.9971H8.09509C7.80466 97.9971 7.52611 97.8817 7.32075 97.6762C7.11538 97.4707 7 97.192 7 96.9014C7 96.6108 7.11538 96.3321 7.32075 96.1266C7.52611 95.9211 7.80466 95.8057 8.09509 95.8057H20.6521V85.5789H8.09509C7.80466 85.5789 7.52611 85.4635 7.32075 85.258C7.11538 85.0525 7 84.7738 7 84.4832C7 84.1926 7.11538 83.9139 7.32075 83.7084C7.52611 83.5029 7.80466 83.3874 8.09509 83.3874H20.6521V73.1607H8.09509C7.80466 73.1607 7.52611 73.0452 7.32075 72.8397C7.11538 72.6343 7 72.3556 7 72.0649C7 71.7743 7.11538 71.4956 7.32075 71.2902C7.52611 71.0847 7.80466 70.9692 8.09509 70.9692H20.6521V60.7425H8.09509C7.80466 60.7425 7.52611 60.627 7.32075 60.4215C7.11538 60.216 7 59.9373 7 59.6467C7 59.3561 7.11538 59.0774 7.32075 58.8719C7.52611 58.6664 7.80466 58.551 8.09509 58.551H20.6521V48.3242H8.09509C7.80466 48.3242 7.52611 48.2088 7.32075 48.0033C7.11538 47.7978 7 47.5191 7 47.2285C7 46.9379 7.11538 46.6592 7.32075 46.4537C7.52611 46.2482 7.80466 46.1328 8.09509 46.1328H20.6521V35.906H8.09509C7.80466 35.906 7.52611 35.7906 7.32075 35.5851C7.11538 35.3796 7 35.1009 7 34.8103C7 34.5197 7.11538 34.241 7.32075 34.0355C7.52611 33.83 7.80466 33.7146 8.09509 33.7146H20.6521V26.0226C20.6521 24.2647 21.3496 22.5787 22.5911 21.335C23.8327 20.0914 25.517 19.3917 27.2738 19.3898H34.6328V7.09573C34.6328 6.80512 34.7482 6.52642 34.9536 6.32093C35.1589 6.11544 35.4375 6 35.7279 6C36.0183 6 36.2969 6.11544 36.5023 6.32093C36.7076 6.52642 36.823 6.80512 36.823 7.09573V19.3898H47.0439V7.09573C47.0439 6.80512 47.1592 6.52642 47.3646 6.32093C47.57 6.11544 47.8485 6 48.139 6C48.4294 6 48.7079 6.11544 48.9133 6.32093C49.1187 6.52642 49.234 6.80512 49.234 7.09573V19.3898H59.4549V7.09573C59.4549 6.80512 59.5703 6.52642 59.7757 6.32093C59.981 6.11544 60.2596 6 60.55 6C60.8404 6 61.119 6.11544 61.3243 6.32093C61.5297 6.52642 61.6451 6.80512 61.6451 7.09573V19.3898H71.866V7.09573C71.866 6.80512 71.9813 6.52642 72.1867 6.32093C72.3921 6.11544 72.6706 6 72.961 6C73.2515 6 73.53 6.11544 73.7354 6.32093C73.9408 6.52642 74.0561 6.80512 74.0561 7.09573V19.3898H84.277V7.09573C84.277 6.80512 84.3924 6.52642 84.5977 6.32093C84.8031 6.11544 85.0816 6 85.3721 6C85.6625 6 85.9411 6.11544 86.1464 6.32093C86.3518 6.52642 86.4672 6.80512 86.4672 7.09573V19.3898H96.688V7.09573C96.688 6.80512 96.8034 6.52642 97.0088 6.32093C97.2141 6.11544 97.4927 6 97.7831 6C98.0736 6 98.3521 6.11544 98.5575 6.32093C98.7628 6.52642 98.8782 6.80512 98.8782 7.09573V19.3898H106.135C107.893 19.3917 109.578 20.0911 110.82 21.3346C112.063 22.5781 112.762 24.264 112.764 26.0226V33.7584H124.905C125.195 33.7584 125.474 33.8738 125.679 34.0793C125.885 34.2848 126 34.5635 126 34.8541C126 35.1447 125.885 35.4234 125.679 35.6289C125.474 35.8344 125.195 35.9498 124.905 35.9498H112.764V46.1766H124.905C125.195 46.1766 125.474 46.292 125.679 46.4975C125.885 46.703 126 46.9817 126 47.2723C126 47.5629 125.885 47.8416 125.679 48.0471ZM107.722 106.516C108.144 106.095 108.382 105.525 108.384 104.929V26.0372C108.384 25.4405 108.147 24.8682 107.725 24.4463C107.303 24.0243 106.731 23.7873 106.135 23.7873H27.2884C26.9935 23.7873 26.7014 23.8455 26.429 23.9587C26.1566 24.0718 25.9092 24.2377 25.701 24.4467C25.4928 24.6557 25.3278 24.9038 25.2156 25.1767C25.1034 25.4497 25.0462 25.7421 25.0471 26.0372V104.929C25.0471 105.524 25.2833 106.095 25.7036 106.515C26.1239 106.936 26.694 107.172 27.2884 107.172H106.135C106.73 107.172 107.301 106.936 107.722 106.516ZM102.842 101.635H30.5664V29.317H102.842V101.635ZM47.559 40.2793C46.8987 39.8379 46.1224 39.6022 45.3282 39.6022C44.2639 39.6042 43.2437 40.0281 42.4911 40.7811C41.7385 41.5341 41.3148 42.5549 41.3129 43.6199C41.3129 44.4145 41.5484 45.1913 41.9896 45.852C42.4308 46.5127 43.0579 47.0276 43.7916 47.3317C44.5253 47.6358 45.3327 47.7154 46.1116 47.5603C46.8905 47.4053 47.6059 47.0227 48.1675 46.4608C48.7291 45.8989 49.1115 45.183 49.2664 44.4037C49.4213 43.6243 49.3418 42.8165 49.0379 42.0824C48.734 41.3483 48.2194 40.7208 47.559 40.2793ZM44.4887 37.4765V31.5085H32.7566V58.4633H48.7157C48.9894 56.9361 49.8245 55.5668 51.0568 54.6249C52.289 53.683 53.829 53.2369 55.3735 53.3743C56.9181 53.5118 58.3553 54.2228 59.402 55.3675C60.4488 56.5122 61.0294 58.0075 61.0294 59.559C61.0294 61.1106 60.4488 62.6059 59.402 63.7506C58.3553 64.8952 56.9181 65.6063 55.3735 65.7437C53.829 65.8812 52.289 65.435 51.0568 64.4932C49.8245 63.5513 48.9894 62.182 48.7157 60.6548H32.7566V99.4288H55.9141V87.3905L49.7086 81.605C48.6167 82.6967 47.1563 83.3403 45.6143 83.4093C44.0723 83.4784 42.5602 82.9679 41.3753 81.9782C40.1903 80.9885 39.4181 79.5912 39.2104 78.0608C39.0027 76.5304 39.3746 74.9776 40.253 73.7076C41.1313 72.4376 42.4526 71.5422 43.9572 71.1973C45.4617 70.8525 47.0408 71.0832 48.3841 71.844C49.7273 72.6049 50.7376 73.8409 51.2164 75.3091C51.6952 76.7774 51.6079 78.3717 50.9716 79.7788L58.1043 86.4554V99.4434H100.652V78.3179H88.1244L82.0649 84.3809C82.8414 85.728 83.0858 87.3172 82.7499 88.8355C82.414 90.3539 81.5222 91.6915 80.25 92.5848C78.9778 93.4782 77.4174 93.8626 75.8762 93.6624C74.3349 93.4623 72.9243 92.692 71.9222 91.5032C70.9201 90.3145 70.3991 88.7935 70.4618 87.2396C70.5244 85.6857 71.1662 84.2116 72.2607 83.1075C73.3553 82.0034 74.8233 81.3494 76.3757 81.2741C77.9281 81.1988 79.4524 81.7077 80.6486 82.7008L87.2191 76.1264H100.652V66.1553H82.1963C81.8619 67.6663 80.9743 68.9973 79.7083 69.8863C78.4422 70.7753 76.8895 71.158 75.3557 70.959C73.8218 70.7599 72.418 69.9936 71.4205 68.8109C70.423 67.6282 69.9041 66.1147 69.9659 64.5683C70.0277 63.022 70.6658 61.5548 71.7545 60.4555C72.8432 59.3563 74.3037 58.7047 75.8486 58.6288C77.3934 58.553 78.9106 59.0586 80.1017 60.0459C81.2927 61.0333 82.0712 62.431 82.2839 63.9639H100.689V54.0804H87.2556L80.3711 47.1993C79.3109 47.97 78.0313 48.3797 76.7208 48.368C75.4935 48.368 74.2937 48.0039 73.2732 47.3216C72.2527 46.6393 71.4574 45.6696 70.9877 44.535C70.518 43.4005 70.3951 42.152 70.6346 40.9476C70.874 39.7431 71.465 38.6368 72.3329 37.7684C73.2007 36.9001 74.3065 36.3087 75.5102 36.0691C76.714 35.8295 77.9617 35.9525 79.0956 36.4224C80.2295 36.8924 81.1987 37.6882 81.8805 38.7093C82.5624 39.7304 82.9264 40.9309 82.9264 42.1589C82.9252 43.3926 82.5511 44.5971 81.8532 45.6141L88.1244 51.889H100.652V31.5085H46.6788V37.5642C48.1889 37.8988 49.5192 38.7869 50.4077 40.0536C51.2962 41.3204 51.6786 42.874 51.4797 44.4088C51.2808 45.9435 50.515 47.3482 49.3329 48.3462C48.1509 49.3443 46.6382 49.8635 45.0928 49.8017C43.5473 49.7398 42.081 49.1014 40.9824 48.012C39.8838 46.9227 39.2325 45.4613 39.1567 43.9156C39.081 42.3698 39.5862 40.8517 40.573 39.66C41.5598 38.4683 42.9567 37.6894 44.4887 37.4765ZM74.49 45.4995C75.1504 45.9409 75.9267 46.1766 76.7208 46.1766C77.7852 46.1746 78.8054 45.7507 79.558 44.9977C80.3106 44.2447 80.7342 43.2239 80.7362 42.1589C80.7362 41.3643 80.5007 40.5875 80.0595 39.9268C79.6183 39.2661 78.9911 38.7512 78.2574 38.4471C77.5237 38.143 76.7164 38.0634 75.9375 38.2185C75.1586 38.3735 74.4431 38.7561 73.8816 39.318C73.32 39.8799 72.9376 40.5958 72.7827 41.3751C72.6277 42.1545 72.7072 42.9623 73.0112 43.6964C73.3151 44.4305 73.8297 45.058 74.49 45.4995ZM80.0061 65.8996V63.9639L80.0645 63.9785C79.8589 63.0185 79.3091 62.1672 78.519 61.5851C77.7289 61.003 76.7532 60.7306 75.776 60.8192C74.7989 60.9078 73.8879 61.3513 73.2153 62.0659C72.5426 62.7806 72.1547 63.717 72.1249 64.6983C72.095 65.6796 72.4253 66.6378 73.0533 67.3921C73.6814 68.1463 74.5637 68.6444 75.5336 68.7923C76.5036 68.9401 77.4941 68.7275 78.3181 68.1946C79.1421 67.6616 79.7426 66.8453 80.0061 65.8996ZM80.0595 89.681C80.5007 89.0203 80.7362 88.2435 80.7362 87.4489C80.7342 86.3839 80.3106 85.3632 79.558 84.6101C78.8054 83.8571 77.7852 83.4332 76.7208 83.4312C75.9267 83.4312 75.1504 83.6669 74.49 84.1083C73.8297 84.5498 73.3151 85.1773 73.0112 85.9114C72.7072 86.6455 72.6277 87.4534 72.7827 88.2327C72.9376 89.0121 73.32 89.7279 73.8816 90.2898C74.4431 90.8517 75.1586 91.2343 75.9375 91.3894C76.7164 91.5444 77.5237 91.4648 78.2574 91.1607C78.9911 90.8566 79.6183 90.3417 80.0595 89.681ZM43.0974 80.5627C43.7578 81.0042 44.5341 81.2398 45.3282 81.2398C46.3926 81.2379 47.4128 80.8139 48.1654 80.0609C48.918 79.3079 49.3416 78.2871 49.3436 77.2221C49.3436 76.4275 49.1081 75.6507 48.6669 74.99C48.2257 74.3293 47.5985 73.8144 46.8648 73.5103C46.1311 73.2062 45.3238 73.1266 44.5449 73.2817C43.766 73.4367 43.0505 73.8193 42.489 74.3812C41.9274 74.9431 41.545 75.659 41.3901 76.4383C41.2351 77.2177 41.3146 78.0255 41.6185 78.7596C41.9225 79.4938 42.4371 80.1212 43.0974 80.5627ZM57.0498 56.2185C56.3895 55.777 55.6132 55.5414 54.819 55.5414C53.7547 55.5433 52.7345 55.9672 51.9819 56.7203C51.2293 57.4733 50.8056 58.4941 50.8037 59.559C50.8037 60.3537 51.0392 61.1304 51.4804 61.7911C51.9216 62.4518 52.5487 62.9668 53.2824 63.2709C54.0161 63.575 54.8235 63.6545 55.6024 63.4995C56.3813 63.3445 57.0967 62.9618 57.6583 62.3999C58.2198 61.8381 58.6023 61.1222 58.7572 60.3428C58.9121 59.5635 58.8326 58.7557 58.5287 58.0215C58.2248 57.2874 57.7101 56.6599 57.0498 56.2185Z" fill="url(#paint0_linear_158_87)"/>
</g>
<defs>
<filter id="filter0_di_158_87" x="1" y="0" width="127" height="127.069" filterUnits="userSpaceOnUse" color-interpolation-filters="sRGB">
<feFlood flood-opacity="0" result="BackgroundImageFix"/>
<feColorMatrix in="SourceAlpha" type="matrix" values="0 0 0 0 0 0 0 0 0 0 0 0 0 0 0 0 0 0 127 0" result="hardAlpha"/>
<feOffset dx="-2" dy="-2"/>
<feGaussianBlur stdDeviation="2"/>
<feComposite in2="hardAlpha" operator="out"/>
<feColorMatrix type="matrix" values="0 0 0 0 1 0 0 0 0 1 0 0 0 0 1 0 0 0 1 0"/>
<feBlend mode="normal" in2="BackgroundImageFix" result="effect1_dropShadow_158_87"/>
<feBlend mode="normal" in="SourceGraphic" in2="effect1_dropShadow_158_87" result="shape"/>
<feColorMatrix in="SourceAlpha" type="matrix" values="0 0 0 0 0 0 0 0 0 0 0 0 0 0 0 0 0 0 127 0" result="hardAlpha"/>
<feOffset dx="1" dy="1"/>
<feGaussianBlur stdDeviation="1"/>
<feComposite in2="hardAlpha" operator="arithmetic" k2="-1" k3="1"/>
<feColorMatrix type="matrix" values="0 0 0 0 0 0 0 0 0 0 0 0 0 0 0 0 0 0 0.25 0"/>
<feBlend mode="normal" in2="shape" result="effect2_innerShadow_158_87"/>
</filter>
<linearGradient id="paint0_linear_158_87" x1="20.2595" y1="31.9887" x2="70.8588" y2="136.902" gradientUnits="userSpaceOnUse">
<stop stop-color="#07CEAA"/>
<stop offset="1" stop-color="#088C6D"/>
</linearGradient>
</defs>
</svg>
