<svg width="1722" height="723" viewBox="0 0 1722 723" fill="none" xmlns="http://www.w3.org/2000/svg">
<g filter="url(#filter0_di_165_300)">
<path fill-rule="evenodd" clip-rule="evenodd" d="M1579.81 103.31L1587.35 95.6671L1579.81 88.0238L1573.57 94.3432H1553.68C1553.34 94.3432 1553 94.4827 1552.76 94.731L1493.05 155.24H1214.69C1214.35 155.24 1214.02 155.38 1213.77 155.628L1141.65 228.714H1106.27C1105.92 228.714 1105.59 228.854 1105.35 229.102L1089.4 245.262H1059.6L1053.37 238.943L1045.82 246.586L1053.37 254.229L1059.6 247.91H1089.94C1090.29 247.91 1090.62 247.77 1090.87 247.522L1106.81 231.362H1142.19C1142.54 231.362 1142.87 231.222 1143.12 230.974L1215.24 157.888H1493.59C1493.94 157.888 1494.27 157.749 1494.52 157.5L1554.22 96.9909H1573.57L1579.81 103.31ZM1292.28 310.737C1292.52 310.49 1292.86 310.351 1293.2 310.351H1316C1316.34 310.351 1316.67 310.49 1316.92 310.737L1320.34 314.199H1329.13V324.969H1318.5V316.064L1315.46 312.989H1293.74L1286.31 320.517C1286.06 320.764 1285.73 320.903 1285.38 320.903H1227.96L1193.82 355.472C1193.57 355.719 1193.24 355.858 1192.89 355.858H1111.83L1105.62 362.155L1098.09 354.539L1105.62 346.924L1111.83 353.22H1192.36L1226.49 318.651C1226.74 318.404 1227.07 318.265 1227.42 318.265H1284.85L1292.28 310.737ZM1708.62 135.599L1701.08 143.241L1694.84 136.922H1566.43L1508.03 196.104C1507.79 196.352 1507.45 196.491 1507.11 196.491H1351.56L1312.1 236.478C1311.86 236.726 1311.53 236.866 1311.18 236.866H1266.12C1265.77 236.866 1265.44 236.726 1265.19 236.478L1247.94 218.995H1207.22L1156.01 270.896C1155.77 271.144 1155.44 271.283 1155.09 271.283H1119.06L1107.03 283.471C1106.79 283.72 1106.45 283.859 1106.11 283.859H1048.52L1024.74 307.961C1024.5 308.209 1024.16 308.348 1023.82 308.348H994.784L988.549 314.667L981.008 307.025L988.549 299.382L994.784 305.701H1023.28L1047.06 281.599C1047.3 281.351 1047.63 281.212 1047.98 281.212H1105.57L1117.59 269.024C1117.84 268.775 1118.17 268.636 1118.52 268.636H1154.55L1205.76 216.735C1206 216.487 1206.34 216.348 1206.68 216.348H1248.48C1248.83 216.348 1249.16 216.487 1249.41 216.735L1266.66 234.218H1310.64L1350.09 194.231C1350.34 193.983 1350.67 193.844 1351.02 193.844H1506.57L1564.96 134.663C1565.21 134.414 1565.54 134.275 1565.89 134.275H1694.84L1701.08 127.956L1708.62 135.599ZM1649.86 130.29L1657.39 122.648L1649.86 115.005L1643.63 121.324H1560.46C1560.1 121.324 1559.76 121.472 1559.51 121.734L1532.78 150.174L1501.2 180.893H1345.77C1345.41 180.893 1345.07 181.038 1344.83 181.296L1306.71 221.267H1269.3L1252.07 203.784C1251.82 203.536 1251.49 203.397 1251.14 203.397H1202.86C1202.51 203.397 1202.18 203.536 1201.93 203.784L1150.76 255.685H1114.76C1114.41 255.685 1114.08 255.824 1113.84 256.073L1101.82 268.261H1044.28C1043.92 268.261 1043.58 268.41 1043.34 268.675L1020.88 292.75H1004.18L997.952 286.431L990.417 294.074L997.952 301.716L1004.18 295.397H1021.44C1021.8 295.397 1022.15 295.248 1022.39 294.983L1044.85 270.908H1102.36C1102.71 270.908 1103.04 270.769 1103.28 270.52L1115.3 258.332H1151.3C1151.65 258.332 1151.98 258.193 1152.23 257.945L1203.4 206.044H1250.6L1267.84 223.527C1268.09 223.775 1268.42 223.915 1268.76 223.915H1307.26C1307.62 223.915 1307.96 223.769 1308.2 223.511L1346.32 183.54H1501.73C1502.06 183.54 1502.39 183.408 1502.63 183.172L1534.61 152.064C1534.62 152.05 1534.63 152.036 1534.65 152.022L1561.02 123.971H1643.63L1649.86 130.29ZM1606.9 109.799L1599.35 117.598L1593.11 111.15H1556.73L1498.25 172.213C1498.01 172.47 1497.67 172.614 1497.32 172.614H1219.24L1146.37 247.867C1146.13 248.12 1145.79 248.262 1145.45 248.262H1110.64L1097.01 262.093L1096.76 262.321C1095.57 263.391 1095.39 263.552 1095.09 263.552H1047.7L1041.46 270L1033.9 262.201L1041.46 254.402L1047.7 260.85H1094.58L1109.25 245.914C1109.49 245.687 1109.8 245.561 1110.13 245.561H1144.91L1217.78 170.308C1218.02 170.055 1218.35 169.912 1218.7 169.912H1496.77L1555.25 108.849C1555.5 108.593 1555.83 108.448 1556.18 108.448H1593.11L1599.35 102L1606.9 109.799ZM1341.04 249.223C1340.79 248.973 1340.46 248.833 1340.12 248.833H1231.82C1231.48 248.833 1231.15 248.973 1230.9 249.223L1185.62 295.399H1103.96C1103.61 295.399 1103.28 295.539 1103.04 295.788L1075.37 324.003H1044.95L1038.72 317.652L1031.19 325.334L1038.72 333.015L1044.95 326.664H1075.91C1076.25 326.664 1076.58 326.524 1076.83 326.275L1104.5 298.06H1186.16C1186.5 298.06 1186.83 297.919 1187.08 297.67L1232.36 251.494H1339.58L1370.51 283.035C1370.75 283.285 1371.08 283.425 1371.43 283.425H1477.41L1483.64 289.776L1491.17 282.094L1483.64 274.413L1477.41 280.764H1371.97L1341.04 249.223ZM1334.33 261.622H1238.21L1192.73 308.57H1109.62L1080.35 338.789H1044.24L1038.51 332.864L1031.56 340.03L1038.51 347.196L1044.24 341.271H1081.34L1110.61 311.052H1193.73L1239.2 264.104H1333.34L1370.22 302.182V310.561H1380.04V300.427H1371.92L1334.33 261.622ZM1097.6 510.751L1090.97 517.606L1097.6 524.46L1103.08 518.793H1345.67L1375.34 546.076H1351.4C1351.05 546.076 1350.73 546.206 1350.48 546.436L1319.9 575.551L1213.91 575.551L1169.14 532.927C1168.9 532.696 1168.57 532.567 1168.23 532.567H1087.5L1060.14 506.523C1059.9 506.292 1059.57 506.163 1059.23 506.163H1028.63L1022.47 500.3L1015.02 507.391L1022.47 514.481L1028.63 508.619L1058.7 508.619L1086.05 534.664C1086.29 534.894 1086.62 535.023 1086.96 535.023H1167.69L1212.46 577.647C1212.71 577.878 1213.03 578.007 1213.38 578.007L1320.44 578.007C1320.78 578.007 1321.11 577.878 1321.35 577.647L1351.93 548.532H1378.01L1395.81 564.901C1396.02 565.094 1396.29 565.201 1396.57 565.201H1686.98L1692.46 570.868L1699.09 564.014L1692.46 557.159L1686.98 562.826H1397.01L1381.47 548.532H1456.17L1462.33 554.395L1469.78 547.304L1462.33 540.214L1456.17 546.076L1378.8 546.076L1346.87 516.718C1346.66 516.525 1346.39 516.418 1346.11 516.418H1103.08L1097.6 510.751ZM936.148 405.325L945.524 405.421L945.447 413.435L967.372 436.554H1014.85L1078.54 499.15H1423.04L1472.11 544.479H1705.8L1711.28 538.812L1717.91 545.666L1711.28 552.521L1705.8 546.854H1471.24L1422.17 501.525H1077.62L1013.93 438.928H966.408L943.807 415.098L936.055 415.018L936.148 405.325ZM987.22 385.205C986.976 384.958 986.645 384.819 986.299 384.819H949.185C948.839 384.819 948.508 384.958 948.264 385.205L944.846 388.057H936.055V398.85H945.464V391.295L949.724 387.452H985.76L1014.68 416.683C1014.92 416.93 1015.25 417.069 1015.6 417.069H1106.2L1140.33 452.864C1140.58 453.122 1140.91 453.267 1141.27 453.267H1267.7L1277.74 463.412C1277.98 463.659 1278.31 463.797 1278.66 463.797H1320.62L1326.84 470.081L1334.36 462.481L1326.84 454.881L1320.62 461.165H1279.2L1269.16 451.02C1268.92 450.773 1268.58 450.634 1268.24 450.634H1141.82L1107.7 414.839C1107.45 414.582 1107.11 414.436 1106.76 414.436H1016.14L987.22 385.205ZM1243.43 276.192H1330.68L1371.4 318.235H1379.52V328.369H1369.7V319.99L1329.68 278.674H1244.43L1200 324.543H1116.36L1086.05 355.841H1044.77L1039.03 361.766L1032.09 354.6L1039.03 347.434L1044.77 353.359H1085.05L1115.37 322.06H1199L1243.43 276.192ZM935.386 372.286L942.327 379.442L948.066 373.525H990.964L1019.71 403.164H1108.06L1145.7 440.885H1347.96L1353.7 446.802L1360.64 439.646L1353.7 432.49L1347.96 438.406H1146.67L1109.04 400.685H1020.71L991.96 371.046H948.066L942.473 365.28L948.066 359.514H998.282L1025.99 388.075H1112.76L1151.44 427.952H1353.19L1358.93 433.868L1365.87 426.713L1358.93 419.557L1353.19 425.473H1152.43L1113.75 385.596H1026.98L999.278 357.035H948.066L942.473 351.269L948.066 345.503H1005.08L1032.78 374.064H1150.91L1181.75 405.858H1283.11L1300.88 387.536H1347.96L1353.7 393.452L1360.64 386.296L1353.7 379.141L1347.96 385.057H1299.88L1282.11 403.379H1182.75L1151.91 371.585H1033.78L1006.07 343.024H948.066L942.327 337.108L935.386 344.264L942.181 351.269L935.386 358.275L942.181 365.28L935.386 372.286ZM981.385 491.378L988.326 484.222L995.267 491.378L989.528 497.295V535.599L1043.19 591.987H1101.21L1121.07 612.465H1161.34L1194.8 649.647H1382.46L1388.2 643.731L1395.14 650.887L1388.2 658.043L1382.46 652.126H1193.75L1160.3 614.944H1120.07L1100.21 594.466H1042.18L987.124 536.612V497.295L981.385 491.378ZM984.986 554.218V564.338H993.102L1036.44 609.016H1092.89L1151.44 669.371H1281.59L1319 707.935V716.302H1328.81V706.182H1320.7L1282.59 666.892H1152.43L1093.89 606.538H1037.44L994.802 562.585V554.218H984.986ZM1004.01 528.712L997.066 521.556L1004.01 514.4L1009.75 520.316H1054.16L1080.3 547.26H1162.85L1208.85 590.371H1329.14L1334.88 584.454L1341.82 591.61L1334.88 598.766L1329.14 592.85H1207.92L1161.92 549.739H1079.3L1053.17 522.795H1009.75L1004.01 528.712ZM1015.36 537.184L1022.3 544.34L1028.04 538.423H1047.42L1074.6 566.445H1157.2L1202.16 610.633H1336.98L1342.72 616.55L1349.66 609.394L1342.72 602.238L1336.98 608.154H1203.12L1158.16 563.966H1075.59L1048.41 535.944H1028.04L1022.3 530.028L1015.36 537.184Z" fill="#C3C3D3"/>
<path fill-rule="evenodd" clip-rule="evenodd" d="M479.73 6.00006L478.162 6.00008L475.548 6L465.456 13.8646C465.13 14.1149 464.938 14.5059 464.938 14.9209V63.9202C464.938 64.2714 465.076 64.6082 465.32 64.8566L584.624 186.031C584.869 186.279 585.2 186.418 585.546 186.418H618.936L636.163 202.62C636.404 202.846 636.721 202.972 637.049 202.972H710.862L721.547 212.92L721.929 221.851L732.565 221.382L732.103 210.579L723.309 210.967L712.251 200.672C712.01 200.448 711.696 200.324 711.37 200.324H637.56L620.333 184.122C620.092 183.896 619.775 183.77 619.447 183.77H586.086L467.546 63.3716V15.5799L479.73 6.00006ZM722.647 6.00012H720.02V50.0727L768.621 99.0715V189.537L762.351 195.858L769.935 203.504L777.518 195.858L771.248 189.537V97.9744L722.647 48.9756V6.00012ZM523.801 433.355L531.466 425.619L537.803 432.015H554.812L568.088 418.615H602.377L611.669 427.995H678.276L692.879 413.256H711.465L725.181 399.412V390.366H736.021V401.307H727.058L712.565 415.935H693.979L679.375 430.675H610.57L601.277 421.295H569.187L555.912 434.695H537.803L531.466 441.091L523.801 433.355ZM733.611 6.00012H736.238V44.9388L784.839 93.8931V178.757L791.109 185.073L783.525 192.712L775.941 185.073L782.211 178.757V94.9892L733.611 46.0349V6.00012ZM763.419 6.00012H760.792V38.0964L809.392 87.0507V178.757L803.122 185.073L810.706 192.712L818.289 185.073L812.019 178.757V85.9546L763.419 37.0003V6.00012ZM786.927 6.00012H789.554V31.708L838.155 80.6622V178.757L844.425 185.073L836.841 192.712L829.258 185.073L835.528 178.757V81.7583L786.927 32.8041V6.00012ZM750.826 6.00012V41.0298L798.543 90.0286V189.537L804.699 195.858L797.253 203.504L789.807 195.858L795.964 189.537V91.1257L748.246 42.1269V6.00012H750.826ZM777.009 34.4084V6.00012H774.382V35.5055L822.983 84.5042V189.537L816.713 195.858L824.296 203.504L831.88 195.858L825.61 189.537V83.4072L777.009 34.4084ZM847.039 6.00012V18.2333L875.787 47.3412V104.669L863.373 117.238V179.836L869.611 186.152L862.066 193.791L854.522 186.152L860.76 179.836V116.142L873.174 103.572V48.4373L844.425 19.3293V6.00012H847.039ZM859.583 12.9919V6.00012H856.97V14.0546L885.719 44.5133V107.662L873.305 120.242V190.616L867.067 196.938L874.611 204.583L882.156 196.938L875.918 190.616V121.339L888.332 108.759V43.4506L859.583 12.9919ZM873.174 6.00012V10.3119L901.923 40.7429V111.284L889.509 123.853V179.836L895.746 186.152L888.202 193.791L880.657 186.152L886.895 179.836V122.757L899.309 110.188V41.8047L870.56 11.3737V6.00012H873.174ZM886.764 7.69469V6.00012H884.151V8.75745L912.9 39.2161V112.939L899.832 126.599V190.616L893.594 196.938L901.139 204.583L908.683 196.938L902.446 190.616V127.736L915.513 114.076V38.1534L886.764 7.69469ZM128.314 77.3196L135.856 84.9629L142.092 78.6435H161.441L221.149 139.153C221.393 139.401 221.726 139.541 222.072 139.541H500.428L572.545 212.627C572.79 212.875 573.123 213.014 573.469 213.014H608.852L624.798 229.175C625.043 229.423 625.375 229.563 625.721 229.563H689.516L695.752 235.882L703.293 228.239L695.752 220.595L689.516 226.915H626.263L610.316 210.754C610.071 210.506 609.739 210.367 609.393 210.367H574.01L501.893 137.281C501.648 137.032 501.316 136.893 500.969 136.893H222.613L162.906 76.3835C162.661 76.1353 162.328 75.9958 161.982 75.9958H142.092L135.856 69.6764L128.314 77.3196ZM685.008 443.074C685.253 442.827 685.585 442.688 685.931 442.688H723.143C723.489 442.688 723.821 442.827 724.066 443.074L727.493 446.528H736.307V457.276H725.647V448.39L722.602 445.321H686.472L657.477 474.552C657.232 474.799 656.9 474.937 656.553 474.937H565.711L531.496 510.733C531.249 510.99 530.91 511.135 530.555 511.135H403.793L393.73 521.28C393.485 521.527 393.153 521.666 392.806 521.666H350.729L344.496 527.949L336.958 520.35L344.496 512.75L350.729 519.033H392.265L402.328 508.888C402.573 508.642 402.905 508.503 403.252 508.503H530L564.216 472.708C564.462 472.45 564.801 472.305 565.156 472.305H656.012L685.008 443.074ZM605.937 453.553C605.59 453.553 605.258 453.692 605.013 453.94L598.863 460.149H541.265C540.918 460.149 540.586 460.288 540.341 460.535L504.794 496.423H368.51L362.273 490.127L354.73 497.742L362.273 505.358L368.51 499.061H505.336C505.682 499.061 506.014 498.922 506.26 498.675L541.806 462.787H599.404C599.751 462.787 600.083 462.648 600.328 462.401L606.478 456.192H617.807L623.957 462.401C624.202 462.648 624.535 462.787 624.881 462.787H644.121L650.358 469.083L657.901 461.468L650.358 453.852L644.121 460.149H625.422L619.272 453.94C619.027 453.692 618.695 453.553 618.349 453.553H605.937ZM600.532 440.398C600.777 440.151 601.108 440.012 601.453 440.012H624.25C624.596 440.012 624.927 440.151 625.171 440.398L628.59 443.86H637.385V454.63H626.748V445.726L623.711 442.65H601.993L594.559 450.178C594.314 450.425 593.983 450.564 593.637 450.564H536.208L502.069 485.133C501.824 485.381 501.493 485.52 501.147 485.52H420.087L413.868 491.816L406.347 484.2L413.868 476.585L420.087 482.881H500.608L534.747 448.312C534.992 448.065 535.323 447.926 535.668 447.926H593.098L600.532 440.398ZM6 118.331L13.5413 125.973L19.7764 119.654H148.191L206.587 178.835C206.832 179.084 207.165 179.223 207.511 179.223H363.06L402.516 219.21C402.761 219.458 403.093 219.598 403.44 219.598H448.503C448.85 219.598 449.182 219.458 449.427 219.21L466.678 201.727H507.394L558.606 253.628C558.851 253.876 559.183 254.015 559.53 254.015H595.562L607.589 266.203C607.833 266.451 608.166 266.591 608.512 266.591H666.097L689.879 290.693C690.124 290.941 690.456 291.08 690.802 291.08H719.834L726.069 297.399L733.611 289.757L726.069 282.114L719.834 288.433H691.343L667.561 264.331C667.316 264.083 666.984 263.943 666.638 263.943H609.053L597.027 251.755C596.782 251.507 596.45 251.368 596.103 251.368H560.071L508.859 199.467C508.614 199.219 508.282 199.08 507.935 199.08H466.137C465.791 199.08 465.458 199.219 465.213 199.467L447.962 216.95H403.981L364.525 176.963C364.28 176.715 363.947 176.576 363.601 176.576H208.052L149.656 117.395C149.411 117.146 149.079 117.007 148.732 117.007H19.7764L13.5413 110.688L6 118.331ZM64.7605 111.943L57.2254 104.3L64.7605 96.6577L70.9905 102.977H154.161C154.518 102.977 154.859 103.125 155.106 103.387L181.841 131.826L213.416 162.546H368.853C369.207 162.546 369.545 162.691 369.791 162.949L407.907 202.92H445.314L462.551 185.437C462.796 185.189 463.128 185.049 463.474 185.049H511.763C512.109 185.049 512.441 185.189 512.686 185.437L563.856 237.338H599.859C600.205 237.338 600.537 237.477 600.782 237.725L612.798 249.913H670.335C670.694 249.913 671.037 250.063 671.283 250.327L693.737 274.403H710.437L716.667 268.084L724.202 275.726L716.667 283.369L710.437 277.05H693.175C692.816 277.05 692.473 276.9 692.227 276.636L669.773 252.561H612.257C611.911 252.561 611.579 252.421 611.335 252.173L599.318 239.985H563.315C562.969 239.985 562.637 239.846 562.393 239.597L511.223 187.697H464.014L446.778 205.18C446.533 205.428 446.201 205.568 445.855 205.568H407.354C407 205.568 406.662 205.422 406.416 205.164L368.3 165.193H212.891C212.555 165.193 212.231 165.061 211.988 164.825L180.013 133.716C179.999 133.703 179.985 133.689 179.971 133.675L153.602 105.624H70.9905L64.7605 111.943ZM107.406 92.4018L114.956 100.018L121.199 93.7209H157.569L216.037 153.347C216.282 153.598 216.617 153.739 216.967 153.739H494.992L567.847 227.221C568.092 227.468 568.425 227.607 568.772 227.607H603.576L618.241 241.112C618.482 241.334 618.797 241.457 619.123 241.457H717.726L723.969 247.754L731.52 240.138L723.969 232.523L717.726 238.819H619.63L604.965 225.314C604.724 225.092 604.409 224.969 604.083 224.969H569.313L496.458 151.487C496.213 151.24 495.88 151.101 495.533 151.101H217.513L159.044 91.4743C158.799 91.2237 158.464 91.0827 158.114 91.0827H121.199L114.956 84.7861L107.406 92.4018ZM460.913 6.00022L462.481 6.00012L455.01 12.0219V71.0634L579.182 196.747H612.654C612.985 196.747 613.303 196.873 613.545 197.101L631.484 213.961H699.95L706.195 207.64L713.748 215.286L706.195 222.931L699.95 216.61H630.97C630.64 216.61 630.322 216.483 630.08 216.256L612.141 199.395H578.64C578.293 199.395 577.96 199.256 577.715 199.008L452.777 72.5482C452.531 72.2999 452.393 71.9631 452.393 71.6119V11.3616C452.393 10.9459 452.586 10.5542 452.914 10.304L458.822 6.00012L459.573 6.00019L460.913 6.00022ZM495.411 6.00002C498.025 6.00009 497.502 6.00013 497.502 6.00013L480.097 19.7997V58.3227L592.389 170.789H616.329L622.568 164.467L630.114 172.114L622.568 179.76L616.329 173.438H591.852C591.508 173.438 591.178 173.301 590.933 173.056L477.872 59.8177C477.623 59.5689 477.483 59.2298 477.483 58.8758V19.1432C477.483 18.7295 477.674 18.3396 477.999 18.0892L493.321 6.00017C493.321 6.00017 492.384 5.99994 495.411 6.00002ZM517.718 6.00021L516.32 6.00015L514.564 6.00017L513.706 6.0002L491.572 23.7473C491.258 23.9988 491.074 24.3838 491.074 24.7914V51.9948C491.074 52.3467 491.211 52.6842 491.455 52.9331L591.254 154.613V163.572H601.888V152.737H593.096L493.679 51.4451V25.4371L517.888 6.00022V6.00021L517.888 6.00012C517.625 6.00016 517.626 6.00019 517.718 6.00021ZM434.777 231.118L436.868 231.118L519.385 230.485C519.731 230.485 520.063 230.626 520.308 230.875L565.592 277.051H647.25C647.596 277.051 647.928 277.191 648.173 277.441L675.843 305.656H706.259L712.487 299.305L720.02 306.986L712.487 314.667L706.259 308.316H675.302C674.956 308.316 674.624 308.176 674.38 307.927L646.71 279.712H565.051C564.705 279.712 564.373 279.572 564.129 279.322L518.845 233.146L411.778 233.779H378.339L372.111 240.129L364.578 232.448L372.111 224.767L378.339 231.118H431.508H434.777ZM1227.2 6.00031L1229.29 6.00027L1230.3 6.00029L1230.86 6.00025L1262.75 29.7307C1263.08 29.9809 1263.27 30.3726 1263.27 30.7883V91.0386C1263.27 91.3898 1263.13 91.7266 1262.89 91.9749L1137.95 218.434C1137.7 218.683 1137.37 218.822 1137.02 218.822H1103.52L1085.58 235.683C1085.34 235.91 1085.02 236.036 1084.69 236.036H1015.71L1009.47 242.357L1001.92 234.712L1009.47 227.067L1015.71 233.388H1084.18L1102.12 216.528C1102.36 216.3 1102.68 216.174 1103.01 216.174H1136.48L1260.65 90.4901V31.4486L1227.2 6.00031ZM1211 6.00024L1208.91 6.00031L1248.12 36.0858V83.8776L1129.58 204.276H1096.22C1095.89 204.276 1095.57 204.402 1095.33 204.628L1078.1 220.83H1004.29C1003.97 220.83 1003.65 220.954 1003.41 221.178L992.355 231.473L983.561 231.085L983.098 241.888L993.734 242.357L994.117 233.426L1004.8 223.478H1078.61C1078.94 223.478 1079.26 223.352 1079.5 223.126L1096.73 206.924H1130.12C1130.46 206.924 1130.79 206.785 1131.04 206.536L1250.34 85.3626C1250.59 85.1143 1250.73 84.7774 1250.73 84.4262V35.4269C1250.73 35.0119 1250.53 34.6209 1250.21 34.3706L1212.57 6.00026L1211 6.00024ZM1191.14 6.00029L1193.23 6.00024L1194.8 6.00026L1237.66 38.5951C1237.99 38.8455 1238.18 39.2354 1238.18 39.6491V79.3818C1238.18 79.7357 1238.04 80.0749 1237.79 80.3237L1124.73 193.562C1124.49 193.807 1124.16 193.944 1123.81 193.944H1099.34L1093.1 200.266L1085.55 192.62L1093.1 184.973L1099.34 191.295H1123.28L1235.57 78.8286V40.3056L1191.14 6.00029ZM1173.36 6.00013L1171.27 6.0002L1221.99 47.0222V73.0302L1122.57 174.322H1113.78V185.157H1124.41V176.198L1224.21 74.5182C1224.45 74.2693 1224.59 73.9318 1224.59 73.5798V46.3765C1224.59 45.9689 1224.41 45.5839 1224.09 45.3323L1175.46 6.00018L1173.36 6.00013ZM533.936 27.5851V38.4112H542.733L638.025 135.369C638.27 135.617 638.601 135.757 638.947 135.757H653.393L669.571 152.217V178.187C669.571 178.919 670.154 179.512 670.874 179.512H735.491L741.788 185.919V194.87H752.428V184.044H743.631L736.953 177.249C736.708 177 736.377 176.861 736.031 176.861H672.177V151.668C672.177 151.316 672.04 150.979 671.795 150.731L654.854 133.494C654.61 133.245 654.279 133.105 653.933 133.105H639.486L544.576 36.536V27.5851H533.936ZM542.299 26.5381V15.7135H552.754V6.00012H563.434V14.9401L652.817 105.431H670.589C670.958 105.431 671.311 105.589 671.559 105.867L696.412 133.677C696.63 133.92 696.75 134.237 696.75 134.565V152.443H727.132L733.377 146.122L740.929 153.767L733.377 161.413L727.132 155.092H695.442C694.72 155.092 694.134 154.499 694.134 153.767V135.075L670.008 108.079H652.276C651.929 108.079 651.596 107.94 651.351 107.692L561.584 16.8129H552.939V24.6632L645.241 118.567H661.641C662 118.567 662.343 118.718 662.589 118.983L684.742 142.846C684.97 143.092 685.097 143.418 685.097 143.756V164.305H740.775L746.995 157.977L754.519 165.631L746.995 173.285L740.775 166.957H683.794C683.075 166.957 682.491 166.363 682.491 165.631V144.283L661.08 121.219H644.701C644.355 121.219 644.024 121.079 643.78 120.83L551.096 26.5381H542.299ZM400.801 6.00012H401.846H402.892H403.937L441.657 43.6855C441.903 43.9332 442.041 44.2692 442.041 44.6195V73.1295L453.626 84.7943H462.481V95.5784H451.771V86.6622L439.802 74.6106C439.556 74.3629 439.418 74.0269 439.418 73.6766V45.1666L400.278 6.00012H400.801ZM765.318 394.802L745.006 371.79V241.167L765.318 218.156H903.228L923.539 241.167V371.79L903.228 394.802H765.318ZM742.651 372.664V240.293L764.248 215.826H904.297L925.894 240.293V372.664L904.297 397.132H764.248L742.651 372.664ZM755.173 366.987L771.416 385.651H896.111L912.354 366.981V246.995L896.111 228.325H771.416L755.173 246.995V366.987ZM752.831 246.127V367.855L770.352 387.965H897.175L914.695 367.849V246.127L897.175 226.012H770.352L752.831 246.127ZM1108.55 6.00024H1106.67V8.68696V85.578L1007.29 188.133H953.276L938.356 203.531V245.067L932.617 250.991L939.558 258.157L946.499 250.991L940.76 245.067V204.559L954.271 190.615H1008.29L1109.07 86.6064V8.68696V6.00024H1108.55ZM1113.47 13.166L1120.42 6.00024L1127.36 13.166L1121.62 19.0906V90.5792L1013.71 202.404H960.388L953.15 209.905V264.571L945.505 272.493L945.521 280.872L935.705 280.891L935.686 270.757L943.802 270.741L950.746 263.545V208.879L959.39 199.921H1012.71L1119.21 89.5538V19.0906L1113.47 13.166ZM1134.16 95.2986V6.00012H1131.76V94.2708L1017.27 212.528H967.909L962.098 218.53V271.282L943.81 290.173L935.694 290.175L935.696 300.309L945.513 300.306L945.51 291.928L964.502 272.31V219.558L968.905 215.01H1018.27L1134.16 95.2986ZM776.982 411.873L786.371 411.824L786.419 421.517L778.656 421.558L694.888 509.08H622.211L565.236 567.899H485.794L427.251 627.258H212.412L132.651 708.131V716.226H123.243V706.512H131.083L211.483 624.884H426.31L484.854 565.525H564.316L621.291 506.705H693.928L777.021 419.888L776.982 411.873ZM1070.24 17.8721L1063.6 24.7263L1069.09 30.3933V75.5243L1041.38 106.283V134.319L1001.81 175.175H962.819L957.33 169.508L950.691 176.362L957.33 183.216L962.819 177.549H1002.76L1043.68 135.302V107.216L1071.39 76.4576V30.3933L1076.87 24.7263L1070.24 17.8721ZM919.549 50.7894L926.49 43.6237L933.431 50.7894L927.692 56.714V118.191L914.102 133.3V158.726L919.841 164.651L912.9 171.817L905.959 164.651L911.698 158.726V132.326L925.288 117.216V56.714L919.549 50.7894ZM1026.33 23.2683L1019.69 30.1225L1025.18 35.7895V133.239L1004.31 154.787H996.543V164.48H1005.93V156.466L1027.48 134.223V35.7895L1032.97 30.1225L1026.33 23.2683ZM1007.14 43.0734L1013.78 36.2192L1020.42 43.0734L1014.93 48.7405V128.826L994.955 149.45V157.465H985.566V147.771H993.329L1012.63 127.843V48.7405L1007.14 43.0734ZM804.845 411.095H795.456V419.098L686.769 531.148H615.158L500.685 649.162H204.309L148.788 706.401H141.025V716.081H150.414V708.078L205.262 651.533H501.638L616.111 533.519H687.722L797.082 420.775H804.845V411.095ZM813.751 411.095H823.14V420.775H815.377L693.472 546.452H621.861L507.387 664.467H211.011L168.709 708.078V716.081H159.319V706.401H167.082L210.059 662.095H506.435L620.908 544.081H692.519L813.751 419.098V411.095ZM841.435 411.095H832.046V419.098L698.269 557.014H626.661L511.665 674.49H215.286L184.332 706.401H176.569V716.081H185.958V708.078L216.239 676.861H512.611L627.607 559.385H699.221L833.672 420.775H841.435V411.095ZM849.818 411.095H859.207V420.775H851.444L703.926 572.857H633.36L520.455 689.255H264.636L259.147 694.914L252.508 688.07L259.147 681.225L264.636 686.884H519.502L632.408 570.486H702.973L849.818 419.098V411.095ZM822.617 466.061H813.228V474.064L707.677 582.88H639.203L517.411 708.439H362.383L356.893 702.78L350.254 709.625L356.893 716.47L362.383 710.81H518.364L640.155 585.251H708.63L814.854 475.741H822.617V466.061ZM901.41 435.873L908.351 428.718L915.292 435.873L909.554 441.79V486.554L925.758 503.259V589.429L856.76 660.561V704.247L862.499 710.164L855.558 717.319L848.617 710.164L854.356 704.247V659.534L923.353 588.402V504.286L907.149 487.581V441.79L901.41 435.873ZM921.419 410.396L914.478 417.551L920.217 423.468V482.73L934.853 497.819V593.796L867.423 664.39V695.086L861.684 701.003L868.625 708.158L875.567 701.003L869.828 695.086V665.405L937.257 594.812V496.792L922.621 481.704V423.468L928.36 417.551L921.419 410.396ZM928.068 431.562L935.009 424.407L941.951 431.562L936.212 437.479V474.727L948.757 488.738V624.441L899.622 677.251V702.631L905.361 708.547L898.42 715.703L891.479 708.547L897.218 702.631V676.255L946.352 623.444V489.707L933.807 475.696V437.479L928.068 431.562ZM944.215 465.841V475.961H952.331L958.897 482.73V571.646L977.192 590.507V642.778L999.146 665.411V704.247L993.407 710.164L1000.35 717.319L1007.29 710.164L1001.55 704.247V664.384L979.597 641.751V589.48L961.302 570.619V481.704L954.031 474.208V465.841H944.215ZM944.329 461.086L944.103 450.968L953.917 450.736L954.103 459.101L973.631 478.33V565.273L991.787 584.053V638.226L1012.53 658.608V696.164L1018.27 702.08L1011.33 709.236L1004.38 702.08L1010.12 696.164V659.67L989.382 639.288V585.078L971.227 566.297V479.391L952.442 460.894L944.329 461.086ZM822.357 486.369L812.542 486.268L812.46 494.634L711.845 596.298H644.931L540.436 705.104H532.32V715.224H542.136V706.857L645.927 598.777H712.826L814.143 496.405L822.258 496.489L822.357 486.369ZM837.095 452.273L844.036 445.107L850.977 452.273L845.239 458.197V515.923L737.561 627.087V705.91L743.299 711.834L736.358 719L729.417 711.834L735.156 705.91V626.059L842.834 514.895V458.197L837.095 452.273ZM869.126 441.869L862.185 449.035L867.924 454.96V527.841L798.762 598.168L798.756 598.174L762.337 635.772V705.91L756.598 711.834L763.539 719L770.48 711.834L764.741 705.91V636.8L800.45 599.936L800.456 599.929L870.328 528.88V454.96L876.067 449.035L869.126 441.869ZM849.64 438.243L856.581 431.077L863.522 438.243L857.784 444.167V522.942L750.628 632.487V694.038L756.367 699.962L749.426 707.128L742.485 699.962L748.224 694.038V631.452L855.379 521.907V444.167L849.64 438.243ZM894.739 410.571L887.798 417.737L893.537 423.661V540.254L790.563 645.482V705.909L784.824 711.834L791.765 719L798.706 711.834L792.968 705.909V646.517L895.941 541.29V423.661L901.68 417.737L894.739 410.571ZM874.73 434.465L881.671 427.299L888.612 434.465L882.873 440.39V534.811L778.854 642.197V693.498L784.593 699.423L777.652 706.589L770.711 699.423L776.45 693.498V641.168L880.469 533.782V440.39L874.73 434.465ZM705.787 475.868L696.398 475.964L696.475 483.978L617.669 483.978H570.126L535.15 520.325H446.701L378.749 581.842H176.116L170.627 576.175L163.988 583.029L170.627 589.884L176.116 584.217H379.627L447.579 522.699H536.069L571.045 486.353H618.635L698.117 486.647L705.88 486.567L705.787 475.868Z" fill="#C3C3D3"/>
</g>
<g filter="url(#filter1_i_165_300)">
<path d="M847.209 326.152L821.024 326.332C819.868 326.341 818.746 326.721 817.825 327.416L811.888 331.889C811.68 332.046 811.526 332.264 811.449 332.512C811.372 332.76 811.375 333.027 811.458 333.273C811.541 333.519 811.7 333.734 811.912 333.885C812.124 334.037 812.378 334.119 812.639 334.119H855.893C856.154 334.119 856.409 334.037 856.621 333.885C856.832 333.734 856.991 333.519 857.074 333.273C857.157 333.027 857.16 332.76 857.083 332.512C857.006 332.264 856.852 332.046 856.644 331.889L850.465 327.236C849.529 326.528 848.385 326.147 847.209 326.152Z" fill="url(#paint0_linear_165_300)"/>
</g>
<g filter="url(#filter2_i_165_300)">
<path d="M818.638 320.41L831.143 298.662C831.72 297.659 831.953 296.496 831.809 295.349L830.72 286.629C830.689 286.37 830.577 286.128 830.4 285.937C830.224 285.745 829.99 285.614 829.734 285.561C829.478 285.509 829.212 285.538 828.974 285.645C828.735 285.751 828.536 285.93 828.406 286.156L806.241 324.386C806.11 324.611 806.052 324.872 806.078 325.131C806.103 325.391 806.21 325.636 806.383 325.831C806.556 326.027 806.787 326.163 807.042 326.22C807.297 326.278 807.564 326.254 807.805 326.152L816.066 322.677C817.149 322.222 818.053 321.425 818.638 320.41Z" fill="url(#paint1_linear_165_300)"/>
</g>
<g filter="url(#filter3_i_165_300)">
<path d="M837.422 298.634L850.09 320.485C850.675 321.494 851.574 322.285 852.652 322.739L860.732 326.142C860.973 326.241 861.238 326.263 861.492 326.204C861.745 326.145 861.974 326.009 862.146 325.815C862.319 325.621 862.426 325.377 862.452 325.12C862.479 324.862 862.424 324.602 862.296 324.377L840.141 286.156C840.01 285.93 839.812 285.751 839.573 285.645C839.335 285.538 839.068 285.509 838.812 285.561C838.556 285.614 838.323 285.745 838.146 285.937C837.969 286.128 837.857 286.37 837.826 286.629L836.743 295.32C836.605 296.469 836.843 297.631 837.422 298.634Z" fill="url(#paint2_linear_165_300)"/>
</g>
<g filter="url(#filter4_i_165_300)">
<path d="M841.192 259.817L839.856 270.458C839.68 271.866 839.971 273.292 840.683 274.52L872.705 329.759C873.417 330.986 874.512 331.949 875.823 332.5L885.743 336.67C886.011 336.782 886.308 336.808 886.591 336.743C886.874 336.678 887.129 336.527 887.321 336.31C887.513 336.093 887.632 335.822 887.661 335.534C887.69 335.246 887.628 334.956 887.483 334.706L843.754 259.301C843.607 259.054 843.388 258.859 843.125 258.742C842.863 258.626 842.57 258.594 842.288 258.651C842.006 258.707 841.749 258.85 841.553 259.059C841.356 259.268 841.23 259.533 841.192 259.817Z" fill="url(#paint3_linear_165_300)"/>
</g>
<g filter="url(#filter5_i_165_300)">
<path d="M864.92 339.762H803.632C802.21 339.761 800.826 340.223 799.692 341.078L791.103 347.549C790.87 347.724 790.699 347.966 790.613 348.243C790.527 348.52 790.531 348.817 790.623 349.091C790.716 349.366 790.892 349.605 791.129 349.774C791.365 349.943 791.648 350.034 791.939 350.034H876.613C876.903 350.034 877.187 349.943 877.423 349.774C877.659 349.605 877.836 349.366 877.929 349.091C878.021 348.817 878.024 348.52 877.938 348.243C877.852 347.966 877.681 347.724 877.449 347.549L868.86 341.078C867.725 340.225 866.342 339.763 864.92 339.762Z" fill="url(#paint4_linear_165_300)"/>
</g>
<g filter="url(#filter6_i_165_300)">
<path d="M795.846 329.751L827.868 274.493C828.581 273.266 828.871 271.842 828.695 270.436L827.359 259.818C827.323 259.531 827.197 259.263 826.999 259.052C826.802 258.84 826.543 258.695 826.259 258.638C825.974 258.58 825.679 258.613 825.415 258.731C825.15 258.849 824.929 259.047 824.783 259.297L781.054 334.707C780.909 334.958 780.846 335.247 780.875 335.535C780.904 335.823 781.023 336.094 781.215 336.311C781.408 336.528 781.663 336.68 781.946 336.744C782.229 336.809 782.526 336.783 782.793 336.671L792.713 332.501C794.031 331.95 795.132 330.984 795.846 329.751Z" fill="url(#paint5_linear_165_300)"/>
</g>
<defs>
<filter id="filter0_di_165_300" x="0" y="0" width="1721.91" height="723" filterUnits="userSpaceOnUse" color-interpolation-filters="sRGB">
<feFlood flood-opacity="0" result="BackgroundImageFix"/>
<feColorMatrix in="SourceAlpha" type="matrix" values="0 0 0 0 0 0 0 0 0 0 0 0 0 0 0 0 0 0 127 0" result="hardAlpha"/>
<feOffset dx="-1" dy="-1"/>
<feGaussianBlur stdDeviation="2.5"/>
<feComposite in2="hardAlpha" operator="out"/>
<feColorMatrix type="matrix" values="0 0 0 0 1 0 0 0 0 1 0 0 0 0 1 0 0 0 1 0"/>
<feBlend mode="normal" in2="BackgroundImageFix" result="effect1_dropShadow_165_300"/>
<feBlend mode="normal" in="SourceGraphic" in2="effect1_dropShadow_165_300" result="shape"/>
<feColorMatrix in="SourceAlpha" type="matrix" values="0 0 0 0 0 0 0 0 0 0 0 0 0 0 0 0 0 0 127 0" result="hardAlpha"/>
<feOffset dx="1" dy="1"/>
<feGaussianBlur stdDeviation="1"/>
<feComposite in2="hardAlpha" operator="arithmetic" k2="-1" k3="1"/>
<feColorMatrix type="matrix" values="0 0 0 0 0.134342 0 0 0 0 0.0204167 0 0 0 0 0.204167 0 0 0 0.25 0"/>
<feBlend mode="normal" in2="shape" result="effect2_innerShadow_165_300"/>
</filter>
<filter id="filter1_i_165_300" x="811.394" y="326.152" width="47.7449" height="9.96704" filterUnits="userSpaceOnUse" color-interpolation-filters="sRGB">
<feFlood flood-opacity="0" result="BackgroundImageFix"/>
<feBlend mode="normal" in="SourceGraphic" in2="BackgroundImageFix" result="shape"/>
<feColorMatrix in="SourceAlpha" type="matrix" values="0 0 0 0 0 0 0 0 0 0 0 0 0 0 0 0 0 0 127 0" result="hardAlpha"/>
<feOffset dx="2" dy="2"/>
<feGaussianBlur stdDeviation="3"/>
<feComposite in2="hardAlpha" operator="arithmetic" k2="-1" k3="1"/>
<feColorMatrix type="matrix" values="0 0 0 0 0.134342 0 0 0 0 0.0204167 0 0 0 0 0.204167 0 0 0 0.25 0"/>
<feBlend mode="normal" in2="shape" result="effect1_innerShadow_165_300"/>
</filter>
<filter id="filter2_i_165_300" x="806.072" y="285.536" width="27.7787" height="42.7151" filterUnits="userSpaceOnUse" color-interpolation-filters="sRGB">
<feFlood flood-opacity="0" result="BackgroundImageFix"/>
<feBlend mode="normal" in="SourceGraphic" in2="BackgroundImageFix" result="shape"/>
<feColorMatrix in="SourceAlpha" type="matrix" values="0 0 0 0 0 0 0 0 0 0 0 0 0 0 0 0 0 0 127 0" result="hardAlpha"/>
<feOffset dx="2" dy="2"/>
<feGaussianBlur stdDeviation="3"/>
<feComposite in2="hardAlpha" operator="arithmetic" k2="-1" k3="1"/>
<feColorMatrix type="matrix" values="0 0 0 0 0.134342 0 0 0 0 0.0204167 0 0 0 0 0.204167 0 0 0 0.25 0"/>
<feBlend mode="normal" in2="shape" result="effect1_innerShadow_165_300"/>
</filter>
<filter id="filter3_i_165_300" x="836.704" y="285.536" width="27.7545" height="42.7006" filterUnits="userSpaceOnUse" color-interpolation-filters="sRGB">
<feFlood flood-opacity="0" result="BackgroundImageFix"/>
<feBlend mode="normal" in="SourceGraphic" in2="BackgroundImageFix" result="shape"/>
<feColorMatrix in="SourceAlpha" type="matrix" values="0 0 0 0 0 0 0 0 0 0 0 0 0 0 0 0 0 0 127 0" result="hardAlpha"/>
<feOffset dx="2" dy="2"/>
<feGaussianBlur stdDeviation="3"/>
<feComposite in2="hardAlpha" operator="arithmetic" k2="-1" k3="1"/>
<feColorMatrix type="matrix" values="0 0 0 0 0.134342 0 0 0 0 0.0204167 0 0 0 0 0.204167 0 0 0 0.25 0"/>
<feBlend mode="normal" in2="shape" result="effect1_innerShadow_165_300"/>
</filter>
<filter id="filter4_i_165_300" x="839.806" y="258.623" width="49.8623" height="80.1549" filterUnits="userSpaceOnUse" color-interpolation-filters="sRGB">
<feFlood flood-opacity="0" result="BackgroundImageFix"/>
<feBlend mode="normal" in="SourceGraphic" in2="BackgroundImageFix" result="shape"/>
<feColorMatrix in="SourceAlpha" type="matrix" values="0 0 0 0 0 0 0 0 0 0 0 0 0 0 0 0 0 0 127 0" result="hardAlpha"/>
<feOffset dx="2" dy="2"/>
<feGaussianBlur stdDeviation="3"/>
<feComposite in2="hardAlpha" operator="arithmetic" k2="-1" k3="1"/>
<feColorMatrix type="matrix" values="0 0 0 0 0.134342 0 0 0 0 0.0204167 0 0 0 0 0.204167 0 0 0 0.25 0"/>
<feBlend mode="normal" in2="shape" result="effect1_innerShadow_165_300"/>
</filter>
<filter id="filter5_i_165_300" x="790.551" y="339.762" width="89.4493" height="12.2725" filterUnits="userSpaceOnUse" color-interpolation-filters="sRGB">
<feFlood flood-opacity="0" result="BackgroundImageFix"/>
<feBlend mode="normal" in="SourceGraphic" in2="BackgroundImageFix" result="shape"/>
<feColorMatrix in="SourceAlpha" type="matrix" values="0 0 0 0 0 0 0 0 0 0 0 0 0 0 0 0 0 0 127 0" result="hardAlpha"/>
<feOffset dx="2" dy="2"/>
<feGaussianBlur stdDeviation="3"/>
<feComposite in2="hardAlpha" operator="arithmetic" k2="-1" k3="1"/>
<feColorMatrix type="matrix" values="0 0 0 0 0.134342 0 0 0 0 0.0204167 0 0 0 0 0.204167 0 0 0 0.25 0"/>
<feBlend mode="normal" in2="shape" result="effect1_innerShadow_165_300"/>
</filter>
<filter id="filter6_i_165_300" x="780.869" y="258.61" width="49.8767" height="80.1689" filterUnits="userSpaceOnUse" color-interpolation-filters="sRGB">
<feFlood flood-opacity="0" result="BackgroundImageFix"/>
<feBlend mode="normal" in="SourceGraphic" in2="BackgroundImageFix" result="shape"/>
<feColorMatrix in="SourceAlpha" type="matrix" values="0 0 0 0 0 0 0 0 0 0 0 0 0 0 0 0 0 0 127 0" result="hardAlpha"/>
<feOffset dx="2" dy="2"/>
<feGaussianBlur stdDeviation="2"/>
<feComposite in2="hardAlpha" operator="arithmetic" k2="-1" k3="1"/>
<feColorMatrix type="matrix" values="0 0 0 0 0.134342 0 0 0 0 0.0204167 0 0 0 0 0.204167 0 0 0 0.25 0"/>
<feBlend mode="normal" in2="shape" result="effect1_innerShadow_165_300"/>
</filter>
<linearGradient id="paint0_linear_165_300" x1="837.293" y1="319.271" x2="840.305" y2="337.182" gradientUnits="userSpaceOnUse">
<stop stop-color="#FF6715"/>
<stop offset="1" stop-color="#FF222E"/>
</linearGradient>
<linearGradient id="paint1_linear_165_300" x1="820.667" y1="250.373" x2="863.83" y2="278.684" gradientUnits="userSpaceOnUse">
<stop stop-color="#FF6715"/>
<stop offset="1" stop-color="#FF222E"/>
</linearGradient>
<linearGradient id="paint2_linear_165_300" x1="851.286" y1="250.385" x2="894.424" y2="278.664" gradientUnits="userSpaceOnUse">
<stop stop-color="#FF6715"/>
<stop offset="1" stop-color="#FF222E"/>
</linearGradient>
<linearGradient id="paint3_linear_165_300" x1="866.905" y1="191.126" x2="948.628" y2="242.973" gradientUnits="userSpaceOnUse">
<stop stop-color="#FF6715"/>
<stop offset="1" stop-color="#FF222E"/>
</linearGradient>
<linearGradient id="paint4_linear_165_300" x1="840.063" y1="330.89" x2="842.721" y2="354.334" gradientUnits="userSpaceOnUse">
<stop stop-color="#FF6715"/>
<stop offset="1" stop-color="#FF222E"/>
</linearGradient>
<linearGradient id="paint5_linear_165_300" x1="807.975" y1="191.101" x2="889.718" y2="242.966" gradientUnits="userSpaceOnUse">
<stop stop-color="#FF6715"/>
<stop offset="1" stop-color="#FF222E"/>
</linearGradient>
</defs>
</svg>
