<svg width="272" height="334" viewBox="0 0 272 334" fill="none" xmlns="http://www.w3.org/2000/svg">
<g id="&#208;&#164;&#208;&#190;&#208;&#189; &#209;&#129;&#208;&#187;&#208;&#181;&#208;&#178;&#208;&#176;" filter="url(#filter0_di_137_162)">
<path id="Vector 136 (Stroke)" fill-rule="evenodd" clip-rule="evenodd" d="M-256.398 227.425L-263 220.603L-256.398 213.782L-250.939 219.422H-9.28778L40.6528 173.534C40.8622 173.342 41.1325 173.235 41.4127 173.235H209.106L214.565 167.595L221.167 174.417L214.565 181.238L209.106 175.598H41.8476L-8.09299 221.486C-8.30234 221.679 -8.57271 221.785 -8.85287 221.785H-250.939L-256.398 227.425Z" fill="#C3C3D3"/>
<path id="Vector 138 (Stroke)" fill-rule="evenodd" clip-rule="evenodd" d="M-473.571 329.03L-482.908 329.125L-483 319.479L-475.281 319.4L-452.777 295.683H-405.454L-358.674 249.497H-17.6806L49.8904 188.273H252.259L257.718 182.633L264.32 189.454L257.718 196.276L252.259 190.636H50.7633L-16.8076 251.86H-357.76L-404.54 298.046H-451.817L-473.648 321.054L-473.571 329.03Z" fill="#C3C3D3"/>
<path id="Vector 72 (Stroke)" fill-rule="evenodd" clip-rule="evenodd" d="M-73.1593 327.018C-73.4028 327.263 -73.733 327.401 -74.0773 327.401H-111.08C-111.425 327.401 -111.755 327.263 -111.998 327.018L-115.406 323.58H-124.171V312.883H-113.57V321.727L-110.543 324.781H-74.6151L-45.7825 295.69C-45.539 295.444 -45.2087 295.306 -44.8644 295.306H45.4684L79.4918 259.682C79.7365 259.426 80.074 259.281 80.4267 259.281H156.478L166.485 249.184C166.728 248.939 167.059 248.801 167.403 248.801H209.244L215.442 242.547L222.938 250.111L215.442 257.674L209.244 251.421H167.941L157.934 261.517C157.691 261.763 157.36 261.901 157.016 261.901H80.9786L46.9552 297.525C46.7105 297.781 46.373 297.926 46.0203 297.926H-44.3266L-73.1593 327.018Z" fill="#C3C3D3"/>
<path id="Vector 73 (Stroke)" fill-rule="evenodd" clip-rule="evenodd" d="M8.38702 316.203C8.14339 316.449 7.81291 316.588 7.46835 316.588H-4.87384C-5.2184 316.588 -5.54885 316.449 -5.79248 316.203L-11.9079 310.024H-30.5021L-36.7037 316.29L-44.2045 308.711L-36.7037 301.132L-30.5021 307.398H-11.3697C-11.0252 307.398 -10.6947 307.537 -10.4511 307.783L-4.33569 313.962H6.93021L13.0456 307.783C13.2892 307.537 13.6197 307.398 13.9642 307.398H71.2395L106.586 271.682C106.83 271.436 107.16 271.297 107.505 271.297H253.563L259.765 265.031L267.266 272.61L259.765 280.189L253.563 273.923H108.043L72.6963 309.639C72.4527 309.886 72.1222 310.024 71.7776 310.024H14.5024L8.38702 316.203Z" fill="#C3C3D3"/>
<path id="Vector 83 (Stroke)" fill-rule="evenodd" clip-rule="evenodd" d="M76.982 129.7C76.7409 129.47 76.4139 129.342 76.0729 129.342L-30.6344 129.342C-30.9753 129.342 -31.3023 129.47 -31.5434 129.7L-76.1639 172.12L-156.626 172.12C-156.967 172.12 -157.294 172.249 -157.535 172.478L-184.8 198.398L-214.771 198.398L-220.908 192.564L-228.33 199.62L-220.908 206.677L-214.771 200.843L-184.267 200.843C-183.926 200.843 -183.599 200.714 -183.358 200.485L-156.094 174.565L-75.6314 174.565C-75.2904 174.565 -74.9634 174.436 -74.7223 174.207L-30.1018 131.786L75.5404 131.786L106.019 160.762C106.26 160.991 106.587 161.12 106.928 161.12L180.169 161.12L186.306 166.954L193.728 159.898L186.306 152.841L180.169 158.675L107.461 158.675L76.982 129.7Z" fill="#C3C3D3"/>
<path id="Vector 147 (Stroke)" fill-rule="evenodd" clip-rule="evenodd" d="M-395.236 329.053L-404.572 329.102L-404.62 319.455L-396.901 319.414L-313.602 232.311H-241.334L-184.678 173.772H-105.682L-47.467 114.697H166.167L245.48 33.2098V25.154H254.836V34.821H247.039L167.091 117.06H-46.5317L-104.747 176.135H-183.763L-240.418 234.674H-312.648L-395.275 321.077L-395.236 329.053Z" fill="#C3C3D3"/>
<path id="Vector 211 (Stroke)" fill-rule="evenodd" clip-rule="evenodd" d="M-413.606 327.916H-422.943V318.282H-415.224L-306.477 206.077H-235.267L-121.436 88.6259H173.277L227.817 32.3514V24.3863H237.154V34.02H229.434L174.224 90.9857H-120.489L-234.32 208.437H-305.529L-413.606 319.951V327.916Z" fill="#C3C3D3"/>
<path id="Vector 212 (Stroke)" fill-rule="evenodd" clip-rule="evenodd" d="M-431.799 327.916H-441.135V318.282H-433.416L-312.194 193.206H-240.985L-127.154 75.7545H167.559L209.625 32.3514V24.3863H218.961V34.02H211.242L168.506 78.1143H-126.207L-240.038 195.565H-311.247L-431.799 319.951V327.916Z" fill="#C3C3D3"/>
<path id="Vector 213 (Stroke)" fill-rule="evenodd" clip-rule="evenodd" d="M-449.991 327.916H-459.327V318.282H-451.608L-317.912 180.334H-246.699L-132.349 63.4195H162.361L192.472 32.3514V24.3863H201.809V34.02H194.089L163.309 65.7793H-131.407L-245.758 182.694H-316.964L-449.991 319.951V327.916Z" fill="#C3C3D3"/>
<path id="Vector 214 (Stroke)" fill-rule="evenodd" clip-rule="evenodd" d="M-467.663 327.916H-477V318.282H-469.281L-322.59 166.927H-252.42L-140.149 51.0845H114.235L119.694 45.4523L126.296 52.2644L119.694 59.0764L114.235 53.4442H-139.201L-251.473 169.286H-321.643L-467.663 319.951V327.916Z" fill="#C3C3D3"/>
<path id="Vector 74 (Stroke)" fill-rule="evenodd" clip-rule="evenodd" d="M55.9015 242.744C55.69 242.959 55.4032 243.08 55.1041 243.08H35.3698C35.0707 243.08 34.7839 242.959 34.5724 242.744L31.6127 239.732H24V230.364H33.2075V238.11L35.8369 240.785H54.637L61.0728 234.237C61.2842 234.022 61.5711 233.901 61.8702 233.901H111.585L141.138 203.831C141.349 203.615 141.636 203.494 141.935 203.494H212.106L217.489 198.017L224 204.642L217.489 211.266L212.106 205.789H142.402L112.849 235.859C112.638 236.075 112.351 236.195 112.052 236.195H62.3373L55.9015 242.744Z" fill="#C3C3D3"/>
</g>
<defs>
<filter id="filter0_di_137_162" x="-489" y="0.752258" width="760.266" height="332.373" filterUnits="userSpaceOnUse" color-interpolation-filters="sRGB">
<feFlood flood-opacity="0" result="BackgroundImageFix"/>
<feColorMatrix in="SourceAlpha" type="matrix" values="0 0 0 0 0 0 0 0 0 0 0 0 0 0 0 0 0 0 127 0" result="hardAlpha"/>
<feOffset dx="-1" dy="-1"/>
<feGaussianBlur stdDeviation="2.5"/>
<feComposite in2="hardAlpha" operator="out"/>
<feColorMatrix type="matrix" values="0 0 0 0 1 0 0 0 0 1 0 0 0 0 1 0 0 0 1 0"/>
<feBlend mode="normal" in2="BackgroundImageFix" result="effect1_dropShadow_137_162"/>
<feBlend mode="normal" in="SourceGraphic" in2="effect1_dropShadow_137_162" result="shape"/>
<feColorMatrix in="SourceAlpha" type="matrix" values="0 0 0 0 0 0 0 0 0 0 0 0 0 0 0 0 0 0 127 0" result="hardAlpha"/>
<feOffset dx="2" dy="2"/>
<feGaussianBlur stdDeviation="2"/>
<feComposite in2="hardAlpha" operator="arithmetic" k2="-1" k3="1"/>
<feColorMatrix type="matrix" values="0 0 0 0 0.134342 0 0 0 0 0.0204167 0 0 0 0 0.204167 0 0 0 0.25 0"/>
<feBlend mode="normal" in2="shape" result="effect2_innerShadow_137_162"/>
</filter>
</defs>
</svg>
