<svg width="235" height="27" viewBox="0 0 235 27" fill="none" xmlns="http://www.w3.org/2000/svg">
<g clip-path="url(#clip0_85_463)">
<path d="M12.1241 19.9492L19.9699 20.0024C20.3162 20.005 20.6523 20.1172 20.9284 20.3225L22.7072 21.6435C22.7696 21.6897 22.8156 21.7541 22.8387 21.8274C22.8618 21.9007 22.8608 21.9793 22.8359 22.0521C22.8111 22.1249 22.7635 22.1881 22.7001 22.2329C22.6366 22.2777 22.5604 22.3019 22.4822 22.3019H9.52209C9.4439 22.3019 9.36769 22.2777 9.30421 22.2329C9.24073 22.1881 9.1932 22.1249 9.16833 22.0521C9.14346 21.9793 9.14251 21.9007 9.16561 21.8274C9.18872 21.7541 9.2347 21.6897 9.29708 21.6435L11.1485 20.2693C11.4291 20.0604 11.7719 19.9479 12.1241 19.9492Z" fill="white"/>
<path d="M20.6848 18.2536L16.9378 11.8318C16.7651 11.5354 16.6951 11.192 16.7384 10.8533L17.0646 8.27836C17.0739 8.20202 17.1074 8.13048 17.1604 8.07389C17.2134 8.01729 17.2833 7.97852 17.36 7.96305C17.4368 7.94759 17.5165 7.95622 17.588 7.98772C17.6594 8.01922 17.7189 8.072 17.7581 8.13858L24.3991 19.4278C24.4386 19.4943 24.4558 19.5713 24.4481 19.6479C24.4405 19.7245 24.4085 19.7968 24.3566 19.8545C24.3047 19.9123 24.2356 19.9525 24.1592 19.9695C24.0827 19.9865 24.0027 19.9794 23.9306 19.9492L21.4553 18.9232C21.1308 18.7887 20.8602 18.5535 20.6848 18.2536Z" fill="white"/>
<path d="M15.0565 11.8234L11.261 18.276C11.0858 18.5739 10.8163 18.8075 10.4934 18.9414L8.07227 19.9464C8.00017 19.9756 7.92058 19.982 7.84461 19.9647C7.76865 19.9474 7.7001 19.9072 7.64851 19.8498C7.59692 19.7924 7.56487 19.7206 7.55684 19.6444C7.54881 19.5683 7.56519 19.4916 7.60371 19.425L14.2418 8.13858C14.281 8.072 14.3406 8.01922 14.412 7.98772C14.4835 7.95622 14.5632 7.94759 14.64 7.96305C14.7167 7.97852 14.7865 8.01729 14.8396 8.07389C14.8926 8.13048 14.9261 8.20202 14.9354 8.27836L15.2601 10.8449C15.3014 11.1841 15.23 11.5273 15.0565 11.8234Z" fill="white"/>
<path d="M13.9271 0.360705L14.3273 3.50313C14.3799 3.91875 14.2929 4.33986 14.0795 4.70251L4.48476 21.0143C4.27143 21.3768 3.9434 21.661 3.5505 21.8237L0.57823 23.0552C0.49799 23.0883 0.409205 23.0958 0.32439 23.0767C0.239575 23.0576 0.162999 23.0129 0.105443 22.9488C0.0478868 22.8848 0.0122442 22.8046 0.00354958 22.7196C-0.00514507 22.6347 0.0135431 22.5491 0.0569735 22.4751L13.1595 0.208337C13.2032 0.13552 13.2691 0.0779032 13.3477 0.0434992C13.4264 0.00909516 13.5141 -0.00038763 13.5985 0.0163718C13.683 0.0331312 13.76 0.0752978 13.8189 0.13701C13.8777 0.198721 13.9156 0.276912 13.9271 0.360705Z" fill="white"/>
<path d="M6.81754 23.9683H25.181C25.6072 23.9682 26.0217 24.1046 26.3616 24.3569L28.9351 26.2678C29.0047 26.3193 29.056 26.3911 29.0817 26.4728C29.1075 26.5545 29.1065 26.6421 29.0788 26.7232C29.0511 26.8043 28.9981 26.8749 28.9273 26.9248C28.8566 26.9748 28.7716 27.0017 28.6845 27.0017H3.31405C3.22689 27.0017 3.14194 26.9748 3.07118 26.9248C3.00043 26.8749 2.94744 26.8043 2.91974 26.7232C2.89204 26.6421 2.89101 26.5545 2.91679 26.4728C2.94256 26.3911 2.99384 26.3193 3.06339 26.2678L5.63689 24.3569C5.97707 24.1051 6.39146 23.9687 6.81754 23.9683Z" fill="white"/>
<path d="M27.514 21.0118L17.9192 4.69438C17.7057 4.33227 17.6187 3.91157 17.6714 3.4964L18.0716 0.360961C18.0826 0.276344 18.1203 0.197232 18.1795 0.13474C18.2386 0.0722488 18.3163 0.0295163 18.4014 0.0125499C18.4866 -0.00441646 18.5751 0.00523483 18.6544 0.0401466C18.7336 0.0750583 18.7998 0.133476 18.8435 0.207194L31.946 22.4754C31.9895 22.5494 32.0081 22.6349 31.9994 22.7199C31.9907 22.8049 31.9551 22.885 31.8976 22.9491C31.84 23.0131 31.7634 23.0579 31.6786 23.077C31.5938 23.0961 31.505 23.0885 31.4248 23.0555L28.4525 21.824C28.0576 21.6613 27.7279 21.376 27.514 21.0118Z" fill="white"/>
</g>
<g clip-path="url(#clip1_85_463)">
<path d="M66.1605 21.702H54.2514V9.63575C54.2501 9.51054 54.2125 9.38846 54.1432 9.28476C54.074 9.18106 53.9761 9.10032 53.8619 9.05258C53.7476 9.00484 53.622 8.99222 53.5007 9.0163C53.3794 9.04037 53.2678 9.10008 53.1798 9.18797C53.1209 9.24597 53.0745 9.31569 53.0436 9.39275C53.0126 9.46982 52.9977 9.55257 52.9999 9.63575V22.3162C52.9983 22.3999 53.0134 22.4831 53.0443 22.5607C53.0752 22.6384 53.1212 22.7089 53.1797 22.7681C53.2381 22.8273 53.3077 22.874 53.3843 22.9052C53.461 22.9365 53.543 22.9518 53.6257 22.9502H66.1605C66.3265 22.9502 66.4857 22.8834 66.603 22.7645C66.7204 22.6456 66.7863 22.4843 66.7863 22.3162C66.7863 22.148 66.7204 21.9868 66.603 21.8679C66.4857 21.749 66.3265 21.6822 66.1605 21.6822V21.702Z" fill="white"/>
<path d="M81.797 9.35681H81.7696C81.7379 9.29177 81.697 9.2317 81.6483 9.17849C81.5287 9.06182 81.3685 8.99773 81.2025 9.00017C81.1213 8.99824 81.0407 9.01307 80.9654 9.04373C80.8901 9.07438 80.8217 9.12022 80.7644 9.17849C80.6643 9.27868 80.5996 9.40966 80.5806 9.55098L74.4599 21.9223C74.3628 22.031 74.3086 22.1721 74.3073 22.3186C74.3068 22.402 74.3227 22.4847 74.3539 22.5618C74.3852 22.639 74.4312 22.7091 74.4895 22.7681C74.5477 22.8271 74.6169 22.8738 74.693 22.9054C74.7692 22.9371 74.8508 22.9531 74.9331 22.9526C75.0165 22.9538 75.0994 22.9378 75.1767 22.9058C75.2539 22.8738 75.3241 22.8264 75.3829 22.7664C75.4171 22.7317 75.4472 22.6931 75.4728 22.6515L81.226 11.0409L86.8305 22.3701C86.839 22.5213 86.9048 22.6633 87.0143 22.7664C87.0712 22.8268 87.1399 22.8745 87.2159 22.9065C87.292 22.9386 87.3738 22.9543 87.4562 22.9526C87.5385 22.9531 87.6202 22.9371 87.6963 22.9054C87.7725 22.8738 87.8417 22.8271 87.8999 22.7681C87.9581 22.7091 88.0042 22.639 88.0354 22.5618C88.0667 22.4847 88.0825 22.402 88.082 22.3186C88.0877 22.262 88.0877 22.2049 88.082 22.1482L88.1055 22.0769L81.797 9.35681Z" fill="white"/>
<path d="M106.17 15.3522H99.9128C99.5828 15.3585 99.255 15.2956 98.9501 15.1674C98.6452 15.0392 98.3698 14.8484 98.1412 14.6072C97.9081 14.3713 97.7232 14.0912 97.597 13.7828C97.4708 13.4745 97.4059 13.1439 97.4059 12.8101C97.4059 12.4763 97.4708 12.1458 97.597 11.8374C97.7232 11.5291 97.9081 11.249 98.1412 11.0131C98.3698 10.7718 98.6452 10.5811 98.9501 10.4529C99.255 10.3247 99.5828 10.2618 99.9128 10.2681H103.929C104.011 10.2689 104.093 10.2532 104.169 10.2219C104.244 10.1906 104.313 10.1444 104.371 10.0858C104.431 10.0273 104.478 9.95695 104.51 9.87925C104.541 9.80155 104.557 9.71811 104.555 9.63408C104.557 9.55064 104.541 9.46779 104.509 9.39074C104.478 9.31369 104.431 9.2441 104.371 9.1863C104.314 9.12649 104.245 9.07913 104.169 9.04711C104.093 9.01509 104.012 8.99907 103.929 9.00004H99.9128C98.9365 9.03195 98.0107 9.44736 97.3312 10.1584C96.6517 10.8695 96.2717 11.8204 96.2717 12.8101C96.2717 13.7999 96.6517 14.7508 97.3312 15.4618C98.0107 16.1729 98.9365 16.5883 99.9128 16.6202H106.17C106.835 16.6202 107.473 16.8878 107.943 17.3642C108.413 17.8405 108.677 18.4866 108.677 19.1602C108.677 19.8339 108.413 20.48 107.943 20.9564C107.473 21.4327 106.835 21.7003 106.17 21.7003H102.154C101.988 21.7003 101.829 21.7671 101.711 21.886C101.594 22.0049 101.528 22.1662 101.528 22.3343C101.528 22.5025 101.594 22.6637 101.711 22.7826C101.829 22.9015 101.988 22.9683 102.154 22.9683H106.17C107.167 22.9683 108.123 22.5671 108.828 21.853C109.533 21.1388 109.929 20.1702 109.929 19.1602C109.929 18.1503 109.533 17.1817 108.828 16.4675C108.123 15.7534 107.167 15.3522 106.17 15.3522Z" fill="white"/>
<path d="M157.37 15.5028C157.894 14.9695 158.251 14.2907 158.395 13.5522C158.54 12.8137 158.465 12.0484 158.18 11.3528C157.896 10.6573 157.415 10.0627 156.797 9.64403C156.18 9.22532 155.453 9.00125 154.71 9.0001H145.324C145.241 8.99858 145.159 9.01433 145.082 9.04637C145.005 9.0784 144.936 9.12606 144.878 9.18636C144.819 9.24435 144.773 9.31407 144.742 9.39114C144.711 9.46821 144.696 9.55096 144.698 9.63414V22.3146C144.698 22.4827 144.764 22.644 144.881 22.7629C144.999 22.8818 145.158 22.9486 145.324 22.9486C145.49 22.9486 145.649 22.8818 145.766 22.7629C145.884 22.644 145.95 22.4827 145.95 22.3146V10.2681H154.722C155.06 10.2546 155.397 10.3104 155.713 10.432C156.029 10.5537 156.318 10.7388 156.561 10.9761C156.805 11.2135 156.999 11.4983 157.131 11.8135C157.264 12.1286 157.332 12.4677 157.332 12.8102C157.332 13.1527 157.264 13.4917 157.131 13.8069C156.999 14.122 156.805 14.4068 156.561 14.6442C156.318 14.8816 156.029 15.0667 155.713 15.1883C155.397 15.31 155.06 15.3657 154.722 15.3522H151.984C151.82 15.3395 151.656 15.3799 151.515 15.4674C151.375 15.5549 151.265 15.6852 151.202 15.8396C151.147 15.959 151.127 16.092 151.144 16.2227C151.161 16.3535 151.215 16.4764 151.3 16.5767L157.354 22.7148C157.376 22.7415 157.401 22.7654 157.429 22.7861C157.484 22.8456 157.552 22.8925 157.627 22.9239C157.701 22.9553 157.782 22.9705 157.863 22.9684C157.945 22.9689 158.027 22.9529 158.103 22.9212C158.179 22.8895 158.248 22.8429 158.306 22.7839C158.365 22.7249 158.411 22.6548 158.442 22.5776C158.473 22.5005 158.489 22.4178 158.488 22.3344C158.491 22.1662 158.428 22.0038 158.312 21.8826L153.119 16.6203H154.726C155.218 16.6248 155.707 16.5281 156.161 16.336C156.615 16.144 157.027 15.8605 157.37 15.5028Z" fill="white"/>
<path d="M229.626 16.6202H231.238C232.214 16.5883 233.14 16.1728 233.819 15.4618C234.499 14.7508 234.879 13.7998 234.879 12.8101C234.879 11.8204 234.499 10.8694 233.819 10.1584C233.14 9.44732 232.214 9.03191 231.238 9H221.851C221.685 9 221.526 9.0668 221.409 9.1857C221.291 9.3046 221.225 9.46588 221.225 9.63404V22.3145C221.224 22.3985 221.239 22.4819 221.271 22.5597C221.303 22.6374 221.35 22.7077 221.409 22.7662C221.466 22.8259 221.535 22.8729 221.611 22.9043C221.687 22.9356 221.769 22.9507 221.851 22.9485C221.934 22.9505 222.016 22.9354 222.093 22.9041C222.169 22.8727 222.239 22.8258 222.297 22.7662C222.355 22.7068 222.401 22.6362 222.432 22.5587C222.463 22.4811 222.478 22.3981 222.477 22.3145V10.268H231.253C231.902 10.294 232.515 10.5732 232.964 11.0471C233.414 11.5209 233.665 12.1528 233.665 12.8101C233.665 13.4674 233.414 14.0992 232.964 14.5731C232.515 15.047 231.902 15.3262 231.253 15.3521H228.516C228.351 15.3394 228.187 15.3798 228.046 15.4673C227.906 15.5548 227.796 15.6851 227.733 15.8395C227.679 15.9591 227.659 16.0919 227.676 16.2225C227.694 16.353 227.747 16.4758 227.831 16.5766L233.889 22.7147L233.96 22.786C234.015 22.8455 234.083 22.8924 234.158 22.9238C234.232 22.9552 234.313 22.9704 234.394 22.9683C234.476 22.9699 234.559 22.9546 234.635 22.9233C234.712 22.892 234.781 22.8454 234.84 22.7862C234.898 22.727 234.944 22.6565 234.975 22.5788C235.006 22.5012 235.021 22.418 235.02 22.3343C235.022 22.1661 234.959 22.0037 234.844 21.8825L229.626 16.6202Z" fill="white"/>
<path d="M192.831 9.63404C192.83 9.50974 192.793 9.38851 192.725 9.28525C192.656 9.18199 192.56 9.1012 192.447 9.0528C192.334 9.00439 192.209 8.99049 192.089 9.0128C191.968 9.0351 191.856 9.09262 191.767 9.17832C191.661 9.28348 191.595 9.4243 191.584 9.57459L185.979 20.9157L180.226 9.30513C180.226 9.26947 180.179 9.23382 180.152 9.19419C180.032 9.07752 179.872 9.01343 179.706 9.01587C179.625 9.01394 179.544 9.02875 179.469 9.0594C179.393 9.09006 179.325 9.13593 179.268 9.19419C179.161 9.29998 179.095 9.44019 179.08 9.59045L173.479 20.9157L167.726 9.30513C167.707 9.26947 167.679 9.23382 167.652 9.19419C167.532 9.07752 167.372 9.01343 167.206 9.01587C167.04 9.01587 166.881 9.08267 166.764 9.20157C166.646 9.32047 166.58 9.48173 166.58 9.64988C166.582 9.79559 166.635 9.93593 166.729 10.0461L172.764 22.4334C172.781 22.572 172.845 22.7005 172.944 22.7979C173.001 22.8583 173.069 22.906 173.145 22.9381C173.221 22.9702 173.303 22.9858 173.386 22.9842C173.468 22.9852 173.551 22.9693 173.627 22.9372C173.704 22.9052 173.773 22.8578 173.831 22.7979C173.883 22.7463 173.925 22.6859 173.957 22.6196H173.984L179.702 11.0883L185.318 22.4334C185.336 22.572 185.399 22.7005 185.498 22.7979C185.555 22.8583 185.624 22.906 185.7 22.9381C185.776 22.9702 185.858 22.9858 185.94 22.9842C186.059 22.9841 186.176 22.9498 186.277 22.8853C186.378 22.8208 186.459 22.7287 186.511 22.6196H186.538L192.835 9.89953L192.812 9.8282C192.828 9.76491 192.835 9.6994 192.831 9.63404Z" fill="white"/>
<path d="M206.246 9.35681H206.219C206.187 9.29177 206.146 9.2317 206.097 9.17849C205.978 9.06182 205.818 8.99773 205.652 9.00017C205.57 8.99824 205.49 9.01307 205.414 9.04373C205.339 9.07438 205.271 9.12022 205.214 9.17849C205.113 9.27868 205.049 9.40966 205.03 9.55098L198.886 21.9223C198.788 22.031 198.734 22.1721 198.733 22.3186C198.732 22.402 198.748 22.4847 198.78 22.5618C198.811 22.639 198.857 22.7091 198.915 22.7681C198.973 22.8271 199.043 22.8738 199.119 22.9054C199.195 22.9371 199.276 22.9531 199.359 22.9526C199.442 22.954 199.525 22.9382 199.602 22.9062C199.68 22.8742 199.75 22.8266 199.809 22.7664C199.843 22.7317 199.873 22.6931 199.898 22.6515L205.652 11.0409L211.256 22.3701C211.265 22.5213 211.33 22.6633 211.44 22.7664C211.497 22.8268 211.566 22.8745 211.642 22.9065C211.718 22.9386 211.799 22.9543 211.882 22.9526C211.964 22.9531 212.046 22.9371 212.122 22.9054C212.198 22.8738 212.267 22.8271 212.326 22.7681C212.384 22.7091 212.43 22.639 212.461 22.5618C212.492 22.4847 212.508 22.402 212.508 22.3186C212.507 22.2613 212.5 22.2042 212.488 22.1482L212.512 22.0769L206.246 9.35681Z" fill="white"/>
<path d="M120.274 16.6595H127.998C128.163 16.6595 128.321 16.5931 128.438 16.475C128.554 16.3568 128.62 16.1966 128.62 16.0295C128.62 15.8624 128.554 15.7021 128.438 15.584C128.321 15.4658 128.163 15.3994 127.998 15.3994H120.274C120.109 15.3994 119.951 15.4658 119.834 15.584C119.717 15.7021 119.652 15.8624 119.652 16.0295C119.652 16.1966 119.717 16.3568 119.834 16.475C119.951 16.5931 120.109 16.6595 120.274 16.6595Z" fill="white"/>
<path d="M132.652 9.0874H120.274C120.117 9.1 119.97 9.17205 119.863 9.28919C119.757 9.40633 119.697 9.55995 119.697 9.71943C119.697 9.87891 119.757 10.0326 119.863 10.1497C119.97 10.2668 120.117 10.3389 120.274 10.3515H132.672C132.829 10.3389 132.975 10.2668 133.082 10.1497C133.189 10.0326 133.248 9.87891 133.248 9.71943C133.248 9.55995 133.189 9.40633 133.082 9.28919C132.975 9.17205 132.829 9.1 132.672 9.0874H132.652Z" fill="white"/>
<path d="M132.652 21.7397H120.274C120.109 21.7397 119.951 21.8061 119.834 21.9243C119.717 22.0424 119.652 22.2027 119.652 22.3698C119.652 22.5369 119.717 22.6972 119.834 22.8153C119.951 22.9335 120.109 22.9999 120.274 22.9999H132.672C132.837 22.9999 132.995 22.9335 133.111 22.8153C133.228 22.6972 133.294 22.5369 133.294 22.3698C133.294 22.2027 133.228 22.0424 133.111 21.9243C132.995 21.8061 132.837 21.7397 132.672 21.7397H132.652Z" fill="white"/>
</g>
<defs>
<clipPath id="clip0_85_463">
<rect width="32" height="27" fill="white" transform="matrix(-1 0 0 1 32 0)"/>
</clipPath>
<clipPath id="clip1_85_463">
<rect width="182" height="14" fill="white" transform="translate(53 9)"/>
</clipPath>
</defs>
</svg>
