<svg width="132" height="132" viewBox="0 0 132 132" fill="none" xmlns="http://www.w3.org/2000/svg">
<g filter="url(#filter0_di_158_105)">
<path fill-rule="evenodd" clip-rule="evenodd" d="M15.6123 7H115.388C117.141 7.00193 118.822 7.69762 120.061 8.93444C121.301 10.1713 121.998 11.8482 122 13.5973V118.471C121.998 120.22 121.301 121.897 120.061 123.134C118.822 124.371 117.141 125.066 115.388 125.068H15.6123C13.8592 125.066 12.1785 124.371 10.9388 123.134C9.6992 121.897 9.00193 120.22 9 118.471V13.5973C9.00193 11.8482 9.6992 10.1713 10.9388 8.93444C12.1785 7.69762 13.8592 7.00193 15.6123 7ZM116.968 120.048C117.387 119.629 117.624 119.063 117.626 118.471V13.5973C117.624 13.0057 117.387 12.4388 116.968 12.0204C116.549 11.6021 115.981 11.3662 115.388 11.3643H15.6123C15.0193 11.3662 14.4512 11.6021 14.0318 12.0204C13.6125 12.4388 13.3761 13.0057 13.3742 13.5973V118.471C13.3761 119.063 13.6125 119.629 14.0318 120.048C14.4512 120.466 15.0193 120.702 15.6123 120.704H115.388C115.981 120.702 116.549 120.466 116.968 120.048ZM110.703 95.1088C110.839 95.1676 110.963 95.2539 111.064 95.3621C111.202 95.4656 111.313 95.5998 111.389 95.7539C111.465 95.9081 111.504 96.0778 111.502 96.2495V109.771C111.502 110.905 111.051 111.991 110.249 112.793C109.447 113.595 108.358 114.047 107.222 114.048H23.9889C22.8532 114.047 21.7648 113.595 20.9624 112.793C20.1601 111.991 19.7095 110.905 19.7095 109.771V59.1533C19.7098 59.0416 19.7296 58.9309 19.7678 58.8259C19.7825 58.5505 19.9012 58.2908 20.1 58.0992C20.2989 57.9076 20.5631 57.7982 20.8395 57.7931L35.3253 57.6549C35.4597 57.6625 35.5923 57.6894 35.719 57.7349C36.2046 56.1372 37.2755 54.7806 38.7185 53.9353C40.1615 53.09 41.8706 52.818 43.5056 53.1734C45.1405 53.5288 46.5813 54.4855 47.5411 55.8531C48.5008 57.2207 48.909 58.8988 48.6845 60.5533C48.46 62.2077 47.6191 63.717 46.3294 64.7807C45.0396 65.8444 43.3957 66.3844 41.7249 66.2931C40.0541 66.2019 38.479 65.4861 37.3133 64.2884C36.1477 63.0906 35.4769 61.4987 35.4347 59.8297H35.3472L21.8966 59.9606V109.721C21.8966 110.275 22.1168 110.807 22.509 111.199C22.9011 111.592 23.4333 111.813 23.9889 111.815H107.222C107.778 111.813 108.31 111.592 108.702 111.199C109.095 110.807 109.315 110.275 109.315 109.721V97.1588H95.8715C95.806 97.1659 95.74 97.1659 95.6746 97.1588C95.4053 98.8171 94.5199 100.314 93.1948 101.35C91.8697 102.387 90.2019 102.887 88.5235 102.753C86.8451 102.618 85.2791 101.857 84.1372 100.623C82.9953 99.3879 82.3613 97.7695 82.3613 96.0895C82.3613 94.4095 82.9953 92.7911 84.1372 91.5564C85.2791 90.3217 86.8451 89.5613 88.5235 89.4265C90.2019 89.2917 91.8697 89.7924 93.1948 90.8289C94.5199 91.8655 95.4053 93.3619 95.6746 95.0203C95.7522 95.0128 95.8303 95.0128 95.9079 95.0203H110.27C110.419 95.0199 110.566 95.05 110.703 95.1088ZM86.6305 99.9939C87.3745 100.479 88.2463 100.733 89.1352 100.723H89.1133C90.2968 100.713 91.4286 100.238 92.2627 99.4003C93.0968 98.5627 93.5658 97.4303 93.5677 96.2495C93.5676 95.3626 93.3034 94.4957 92.8084 93.759C92.3135 93.0223 91.6102 92.4491 90.7879 92.112C89.9657 91.775 89.0616 91.6894 88.1905 91.8662C87.3194 92.043 86.5207 92.4741 85.8957 93.1048C85.2708 93.7355 84.8478 94.5374 84.6806 95.4084C84.5134 96.2795 84.6095 97.1805 84.9567 97.997C85.3039 98.8134 85.8865 99.5085 86.6305 99.9939ZM44.595 55.9479C43.8555 55.4564 42.9866 55.1949 42.098 55.1963C40.9083 55.1982 39.7679 55.6712 38.9273 56.5112C38.0866 57.3513 37.6145 58.4899 37.6145 59.677C37.6145 60.5635 37.8781 61.43 38.3719 62.167C38.8656 62.904 39.5674 63.4783 40.3885 63.8172C41.2095 64.1562 42.1128 64.2445 42.9841 64.071C43.8555 63.8975 44.6557 63.47 45.2834 62.8427C45.9112 62.2153 46.3383 61.4163 46.5108 60.5466C46.6832 59.677 46.5933 58.7759 46.2522 57.9573C45.9112 57.1386 45.3345 56.4394 44.595 55.9479ZM65.6093 66.3325C66.9304 66.3325 68.2218 65.9416 69.3201 65.2091C70.4185 64.4767 71.2744 63.4357 71.7796 62.2178C72.2848 60.9999 72.4166 59.6599 72.1584 58.3672C71.9001 57.0746 71.2634 55.8874 70.3287 54.9559C69.3941 54.0244 68.2035 53.3904 66.9076 53.1341C65.6118 52.8778 64.2688 53.0108 63.0487 53.5162C61.8286 54.0216 60.7862 54.8767 60.0533 55.9734C59.3204 57.07 58.93 58.3589 58.9314 59.677C58.9353 61.4422 59.6403 63.134 60.892 64.3815C62.1437 65.629 63.8401 66.3306 65.6093 66.3325ZM65.6093 55.1964C66.4975 55.1964 67.3658 55.4592 68.1043 55.9515C68.8428 56.4438 69.4184 57.1436 69.7583 57.9623C70.0982 58.7811 70.1871 59.682 70.0139 60.5511C69.8406 61.4203 69.4129 62.2187 68.7848 62.8453C68.1568 63.4719 67.3566 63.8987 66.4854 64.0716C65.6143 64.2445 64.7113 64.1557 63.8908 63.8166C63.0702 63.4775 62.3688 62.9032 61.8753 62.1663C61.3819 61.4295 61.1185 60.5632 61.1185 59.677C61.1185 58.4887 61.5916 57.349 62.4338 56.5087C63.276 55.6684 64.4183 55.1964 65.6093 55.1964ZM92.8261 65.2127C91.7268 65.9442 90.4347 66.334 89.1133 66.3325C87.3447 66.3306 85.6491 65.6288 84.3986 64.381C83.148 63.1333 82.4446 61.4416 82.4426 59.677C82.4412 58.3586 82.8318 57.0694 83.565 55.9726C84.2983 54.8758 85.3411 54.0207 86.5617 53.5155C87.7822 53.0103 89.1255 52.8778 90.4216 53.1346C91.7177 53.3915 92.9083 54.0262 93.8426 54.9584C94.777 55.8907 95.4132 57.0785 95.6706 58.3717C95.9281 59.6648 95.7952 61.0051 95.2889 62.2228C94.7825 63.4406 93.9254 64.4811 92.8261 65.2127ZM91.6103 55.9479C90.8708 55.4565 90.0018 55.1949 89.1133 55.1964C87.9235 55.1983 86.7831 55.6712 85.9425 56.5113C85.1019 57.3514 84.6297 58.4899 84.6297 59.677C84.6297 60.5635 84.8933 61.4301 85.3871 62.1671C85.8809 62.9041 86.5827 63.4784 87.4037 63.8173C88.2247 64.1562 89.1281 64.2445 89.9994 64.071C90.8708 63.8975 91.6709 63.4701 92.2987 62.8427C92.9265 62.2154 93.3536 61.4163 93.5261 60.5467C93.6985 59.677 93.6086 58.7759 93.2675 57.9573C92.9265 57.1387 92.3498 56.4394 91.6103 55.9479ZM42.0981 71.3076C40.7788 71.3076 39.4891 71.698 38.3921 72.4293C37.2951 73.1606 36.4401 74.2001 35.9353 75.4163C35.4304 76.6324 35.2983 77.9706 35.5557 79.2617C35.8131 80.5528 36.4484 81.7387 37.3813 82.6695C38.3142 83.6003 39.5028 84.2342 40.7967 84.491C42.0907 84.7478 43.4319 84.616 44.6508 84.1123C45.8697 83.6085 46.9115 82.7554 47.6445 81.6609C48.3775 80.5664 48.7687 79.2796 48.7687 77.9632C48.7687 77.0892 48.5961 76.2238 48.2609 75.4163C47.9257 74.6087 47.4343 73.875 46.8149 73.257C46.1955 72.639 45.4601 72.1487 44.6508 71.8142C43.8415 71.4798 42.9741 71.3076 42.0981 71.3076ZM42.0981 82.4367C41.2113 82.4367 40.3445 82.1744 39.6072 81.6828C38.8699 81.1913 38.2952 80.4926 37.9559 79.6752C37.6165 78.8578 37.5277 77.9583 37.7007 77.0905C37.8737 76.2228 38.3007 75.4257 38.9278 74.8C39.5548 74.1744 40.3537 73.7484 41.2234 73.5757C42.0931 73.4031 42.9946 73.4917 43.8139 73.8303C44.6331 74.1689 45.3333 74.7423 45.826 75.4779C46.3186 76.2136 46.5816 77.0785 46.5816 77.9632C46.5816 78.5507 46.4656 79.1324 46.2403 79.6752C46.015 80.2179 45.6847 80.7111 45.2684 81.1265C44.8521 81.5419 44.3578 81.8714 43.8139 82.0962C43.2699 82.321 42.6869 82.4367 42.0981 82.4367ZM69.3134 83.4937C68.2173 84.2259 66.9284 84.6175 65.6093 84.6189C63.8401 84.617 62.1438 83.9154 60.892 82.6678C59.6403 81.4203 58.9353 79.7285 58.9314 77.9633C58.9314 76.6472 59.3224 75.3607 60.0551 74.2663C60.7878 73.172 61.8291 72.3189 63.0476 71.8149C64.2661 71.311 65.607 71.1788 66.9008 71.435C68.1945 71.6912 69.3831 72.3244 70.3163 73.2544C71.2495 74.1845 71.8854 75.3698 72.1436 76.6604C72.4018 77.9509 72.2708 79.2889 71.767 80.5052C71.2633 81.7215 70.4094 82.7615 69.3134 83.4937ZM68.0983 74.2472C67.3619 73.7548 66.4958 73.4912 65.6093 73.4898C64.4196 73.4898 63.2784 73.9609 62.4364 74.7996C61.5944 75.6383 61.1204 76.7762 61.1185 77.9633C61.1185 78.8477 61.3813 79.7123 61.8736 80.4478C62.3659 81.1833 63.0658 81.7567 63.8846 82.0955C64.7034 82.4343 65.6045 82.5233 66.4741 82.3513C67.3436 82.1793 68.1425 81.7539 68.7698 81.129C69.3972 80.5041 69.8247 79.7077 69.9986 78.8404C70.1724 77.9732 70.0846 77.0739 69.7464 76.2564C69.4082 75.4388 68.8346 74.7397 68.0983 74.2472ZM89.1134 84.6189C90.4327 84.6189 91.7224 84.2285 92.8194 83.4972C93.9164 82.7659 94.7714 81.7264 95.2763 80.5103C95.7812 79.2941 95.9133 77.9559 95.6559 76.6648C95.3985 75.3737 94.7632 74.1878 93.8303 73.257C92.8974 72.3262 91.7088 71.6923 90.4148 71.4355C89.1208 71.1787 87.7796 71.3105 86.5607 71.8142C85.3418 72.318 84.2999 73.1711 83.567 74.2656C82.834 75.3601 82.4427 76.6469 82.4427 77.9633C82.4447 79.7279 83.1481 81.4196 84.3987 82.6674C85.6492 83.9151 87.3448 84.617 89.1134 84.6189ZM89.1134 73.4898C90.0002 73.4898 90.867 73.7522 91.6043 74.2437C92.3416 74.7353 92.9163 75.4339 93.2557 76.2513C93.595 77.0688 93.6838 77.9682 93.5108 78.836C93.3378 79.7038 92.9108 80.5008 92.2838 81.1265C91.6567 81.7521 90.8578 82.1782 89.9881 82.3508C89.1184 82.5234 88.2169 82.4348 87.3976 82.0962C86.5784 81.7576 85.8781 81.1842 85.3855 80.4486C84.8928 79.7129 84.6299 78.848 84.6299 77.9633C84.6318 76.7774 85.1048 75.6407 85.9452 74.8022C86.7856 73.9636 87.9249 73.4917 89.1134 73.4898ZM38.3921 90.7157C39.4891 89.9843 40.7788 89.594 42.0981 89.594C43.8672 89.594 45.5639 90.2952 46.8149 91.5434C48.0659 92.7915 48.7687 94.4844 48.7687 96.2496C48.7687 97.5659 48.3775 98.8527 47.6445 99.9472C46.9115 101.042 45.8697 101.895 44.6508 102.399C43.4319 102.902 42.0907 103.034 40.7967 102.777C39.5028 102.52 38.3142 101.887 37.3813 100.956C36.4484 100.025 35.8131 98.8391 35.5557 97.548C35.2983 96.257 35.4304 94.9187 35.9353 93.7026C36.4401 92.4864 37.2951 91.447 38.3921 90.7157ZM39.6072 99.9691C40.3445 100.461 41.2113 100.723 42.0981 100.723C43.2872 100.723 44.4276 100.252 45.2684 99.4128C46.1092 98.5738 46.5816 97.436 46.5816 96.2496C46.5816 95.3648 46.3186 94.4999 45.826 93.7643C45.3333 93.0286 44.6331 92.4553 43.8139 92.1167C42.9946 91.7781 42.0931 91.6895 41.2234 91.8621C40.3537 92.0347 39.5548 92.4608 38.9278 93.0864C38.3007 93.712 37.8737 94.5091 37.7007 95.3768C37.5277 96.2446 37.6165 97.1441 37.9559 97.9615C38.2952 98.7789 38.8699 99.4775 39.6072 99.9691ZM65.6093 102.905C66.9284 102.904 68.2173 102.512 69.3134 101.78C70.4094 101.048 71.2633 100.008 71.767 98.7915C72.2708 97.5752 72.4018 96.2373 72.1436 94.9467C71.8854 93.6561 71.2495 92.4709 70.3163 91.5408C69.3831 90.6107 68.1945 89.9776 66.9008 89.7214C65.607 89.4651 64.2661 89.5974 63.0476 90.1013C61.8291 90.6053 60.7878 91.4583 60.0551 92.5527C59.3224 93.647 58.9314 94.9335 58.9314 96.2496C58.9333 98.0154 59.6378 99.7083 60.8899 100.956C62.142 102.204 63.8395 102.905 65.6093 102.905ZM65.6093 91.7762C66.4958 91.7776 67.3619 92.0412 68.0983 92.5336C68.8346 93.026 69.4082 93.7252 69.7464 94.5427C70.0846 95.3602 70.1724 96.2595 69.9986 97.1267C69.8247 97.994 69.3972 98.7904 68.7698 99.4153C68.1425 100.04 67.3436 100.466 66.4741 100.638C65.6045 100.81 64.7034 100.721 63.8846 100.382C63.0658 100.043 62.3659 99.4696 61.8736 98.7341C61.3813 97.9986 61.1185 97.134 61.1185 96.2496C61.1204 95.0625 61.5944 93.9247 62.4364 93.0859C63.2784 92.2472 64.4196 91.7762 65.6093 91.7762ZM23.9306 21.2131H107.281C109.738 21.2131 111.743 23.4753 111.743 26.2611V36.0006C111.743 38.8228 109.738 41.0922 107.281 41.0922H23.9306C21.4664 41.0922 19.4689 38.7864 19.4689 36.0006V26.2611C19.4689 23.4753 21.4664 21.2131 23.9306 21.2131ZM108.947 37.7534C109.373 37.2716 109.592 36.6419 109.555 36.0006V26.2611C109.592 25.6198 109.373 24.9901 108.947 24.5082C108.522 24.0264 107.923 23.7311 107.281 23.6862H23.9306C23.2884 23.7311 22.6897 24.0264 22.264 24.5082C21.8383 24.9901 21.6199 25.6198 21.656 26.2611V36.0006C21.6199 36.6419 21.8383 37.2716 22.264 37.7534C22.6897 38.2353 23.2884 38.5306 23.9306 38.5755H107.281C107.923 38.5306 108.522 38.2353 108.947 37.7534Z" fill="url(#paint0_linear_158_105)"/>
</g>
<defs>
<filter id="filter0_di_158_105" x="3" y="1" width="121" height="126.068" filterUnits="userSpaceOnUse" color-interpolation-filters="sRGB">
<feFlood flood-opacity="0" result="BackgroundImageFix"/>
<feColorMatrix in="SourceAlpha" type="matrix" values="0 0 0 0 0 0 0 0 0 0 0 0 0 0 0 0 0 0 127 0" result="hardAlpha"/>
<feOffset dx="-2" dy="-2"/>
<feGaussianBlur stdDeviation="2"/>
<feComposite in2="hardAlpha" operator="out"/>
<feColorMatrix type="matrix" values="0 0 0 0 1 0 0 0 0 1 0 0 0 0 1 0 0 0 1 0"/>
<feBlend mode="normal" in2="BackgroundImageFix" result="effect1_dropShadow_158_105"/>
<feBlend mode="normal" in="SourceGraphic" in2="effect1_dropShadow_158_105" result="shape"/>
<feColorMatrix in="SourceAlpha" type="matrix" values="0 0 0 0 0 0 0 0 0 0 0 0 0 0 0 0 0 0 127 0" result="hardAlpha"/>
<feOffset dx="1" dy="1"/>
<feGaussianBlur stdDeviation="1"/>
<feComposite in2="hardAlpha" operator="arithmetic" k2="-1" k3="1"/>
<feColorMatrix type="matrix" values="0 0 0 0 0 0 0 0 0 0 0 0 0 0 0 0 0 0 0.25 0"/>
<feBlend mode="normal" in2="shape" result="effect2_innerShadow_158_105"/>
</filter>
<linearGradient id="paint0_linear_158_105" x1="21.591" y1="32.7703" x2="73.1058" y2="135.056" gradientUnits="userSpaceOnUse">
<stop stop-color="#07CEAA"/>
<stop offset="1" stop-color="#088C6D"/>
</linearGradient>
</defs>
</svg>
