<svg width="132" height="133" viewBox="0 0 132 133" fill="none" xmlns="http://www.w3.org/2000/svg">
<g filter="url(#filter0_di_158_102)">
<path fill-rule="evenodd" clip-rule="evenodd" d="M97.8436 58.3926C97.6441 57.9823 97.3206 57.6446 96.9184 57.4268C96.5163 57.209 96.0557 57.1221 95.6014 57.1782L71.2655 60.1595L100.152 9.25933C100.421 8.78744 100.504 8.23252 100.384 7.70295C100.265 7.17339 99.9512 6.70723 99.5049 6.39554C99.0585 6.08385 98.5115 5.94902 97.9707 6.01738C97.4298 6.08574 96.934 6.35238 96.5801 6.76522L33.228 80.3087C32.9312 80.6509 32.7485 81.0765 32.7052 81.5265C32.6619 81.9766 32.7602 82.4289 32.9863 82.8209C33.2125 83.213 33.5554 83.5254 33.9677 83.7149C34.38 83.9045 34.8412 83.9618 35.2876 83.879L56.7239 79.967L26.8227 123.647C26.5247 124.094 26.4026 124.634 26.4797 125.165C26.5569 125.696 26.8278 126.18 27.2409 126.525C27.6539 126.87 28.18 127.051 28.7186 127.033C29.2572 127.016 29.7705 126.802 30.1605 126.432L97.3981 60.9012C97.727 60.5823 97.9469 60.1685 98.0269 59.7184C98.1068 59.2682 98.0427 58.8045 97.8436 58.3926ZM42.8762 107.933L63.3264 78.12C63.551 77.7922 63.6814 77.4095 63.7038 77.0133C63.7261 76.617 63.6394 76.2223 63.4531 75.8714C63.2667 75.5206 62.9878 75.2271 62.6463 75.0223C62.3048 74.8176 61.9137 74.7096 61.5151 74.7097C61.3839 74.6989 61.252 74.6989 61.1207 74.7097L40.5828 78.4763L85.2959 26.5509L65.313 61.7811C65.1129 62.1339 65.0155 62.5352 65.0316 62.94C65.0477 63.3448 65.1767 63.7372 65.4042 64.0731C65.6316 64.4091 65.9486 64.6753 66.3195 64.842C66.6904 65.0087 67.1006 65.0692 67.5041 65.0169L89.7219 62.2974L42.8762 107.933ZM14.1873 67.4454C14.2041 53.7972 19.5966 40.6999 29.2064 30.9665C38.8162 21.2332 51.8769 15.6403 65.5833 15.389C65.966 16.9848 66.9369 18.3793 68.3036 19.2962C69.6702 20.213 71.3329 20.5854 72.9623 20.3394C74.5916 20.0934 76.0687 19.2471 77.101 17.9681C78.1332 16.6891 78.6452 15.0708 78.5356 13.4337C78.426 11.7966 77.7027 10.2603 76.5091 9.12902C75.3155 7.99776 73.7386 7.35415 72.0909 7.32569C70.4431 7.29724 68.8448 7.88602 67.6125 8.97538C66.3801 10.0647 65.6038 11.5752 65.4372 13.2075C55.614 13.397 46.0251 16.227 37.6852 21.3981C29.3453 26.5692 22.5649 33.8889 18.0615 42.5826C13.5581 51.2762 11.4993 61.0203 12.103 70.7835C12.7067 80.5467 15.9505 89.9658 21.491 98.0438C21.5924 98.1895 21.7278 98.3086 21.8855 98.391C22.0432 98.4733 22.2186 98.5163 22.3967 98.5165C22.6158 98.5177 22.83 98.4517 23.0102 98.3274C23.1291 98.2471 23.2309 98.1442 23.3097 98.0245C23.3885 97.9049 23.4427 97.7709 23.4691 97.6303C23.4956 97.4896 23.4939 97.3452 23.464 97.2053C23.4341 97.0653 23.3767 96.9327 23.295 96.8149C17.3466 88.1669 14.1711 77.9268 14.1873 67.4454ZM71.9521 9.5427C72.8188 9.5427 73.6661 9.79858 74.3867 10.278C75.1074 10.7574 75.669 11.4388 76.0007 12.236C76.3324 13.0332 76.4192 13.9104 76.2501 14.7567C76.081 15.6031 75.6636 16.3804 75.0508 16.9906C74.4379 17.6008 73.6571 18.0163 72.807 18.1846C71.957 18.353 71.0758 18.2666 70.2751 17.9364C69.4744 17.6061 68.7899 17.0469 68.3084 16.3295C67.8269 15.612 67.5699 14.7685 67.5699 13.9056C67.5699 12.7485 68.0316 11.6388 68.8534 10.8206C69.6752 10.0024 70.7899 9.5427 71.9521 9.5427ZM109.398 33.9967C116.949 43.5212 121.038 55.3114 120.996 67.4454C120.979 81.7723 115.278 95.5124 105.133 105.674C94.9883 115.835 81.2222 121.594 66.8322 121.698C66.0959 123.12 64.8619 124.225 63.3632 124.802C61.8646 125.38 60.2053 125.391 58.6989 124.834C57.1926 124.276 55.9435 123.189 55.1879 121.777C54.4323 120.365 54.2225 118.726 54.5981 117.17C54.9737 115.614 55.9087 114.25 57.2265 113.334C58.5442 112.418 60.1533 112.014 61.7496 112.199C63.3458 112.384 64.8187 113.145 65.8898 114.338C66.9609 115.531 67.556 117.073 67.5626 118.673C67.5615 118.95 67.542 119.227 67.5041 119.502C81.1939 119.226 94.2305 113.623 103.82 103.892C113.409 94.1611 118.789 81.0776 118.805 67.4454C118.847 55.7948 114.923 44.4737 107.674 35.3273C107.57 35.2166 107.49 35.0854 107.439 34.942C107.388 34.7987 107.368 34.6463 107.38 34.4948C107.392 34.3433 107.436 34.1959 107.508 34.0621C107.581 33.9284 107.68 33.8112 107.801 33.718C107.922 33.6249 108.06 33.5579 108.209 33.5213C108.357 33.4847 108.511 33.4794 108.661 33.5056C108.812 33.5319 108.955 33.5891 109.082 33.6737C109.209 33.7582 109.316 33.8682 109.398 33.9967ZM58.6058 122.279C59.3264 122.758 60.1737 123.014 61.0404 123.014C62.2026 123.014 63.3173 122.554 64.1391 121.736C64.9609 120.918 65.4226 119.808 65.4226 118.651C65.4226 117.788 65.1656 116.945 64.6841 116.227C64.2025 115.51 63.5181 114.951 62.7174 114.62C61.9166 114.29 61.0355 114.204 60.1855 114.372C59.3354 114.54 58.5546 114.956 57.9417 115.566C57.3289 116.176 56.9115 116.954 56.7424 117.8C56.5733 118.646 56.6601 119.524 56.9918 120.321C57.3235 121.118 57.8851 121.799 58.6058 122.279Z" fill="url(#paint0_linear_158_102)"/>
</g>
<defs>
<filter id="filter0_di_158_102" x="6" y="0" width="116.997" height="129.034" filterUnits="userSpaceOnUse" color-interpolation-filters="sRGB">
<feFlood flood-opacity="0" result="BackgroundImageFix"/>
<feColorMatrix in="SourceAlpha" type="matrix" values="0 0 0 0 0 0 0 0 0 0 0 0 0 0 0 0 0 0 127 0" result="hardAlpha"/>
<feOffset dx="-2" dy="-2"/>
<feGaussianBlur stdDeviation="2"/>
<feComposite in2="hardAlpha" operator="out"/>
<feColorMatrix type="matrix" values="0 0 0 0 1 0 0 0 0 1 0 0 0 0 1 0 0 0 1 0"/>
<feBlend mode="normal" in2="BackgroundImageFix" result="effect1_dropShadow_158_102"/>
<feBlend mode="normal" in="SourceGraphic" in2="effect1_dropShadow_158_102" result="shape"/>
<feColorMatrix in="SourceAlpha" type="matrix" values="0 0 0 0 0 0 0 0 0 0 0 0 0 0 0 0 0 0 127 0" result="hardAlpha"/>
<feOffset dx="1" dy="1"/>
<feGaussianBlur stdDeviation="1"/>
<feComposite in2="hardAlpha" operator="arithmetic" k2="-1" k3="1"/>
<feColorMatrix type="matrix" values="0 0 0 0 0 0 0 0 0 0 0 0 0 0 0 0 0 0 0.25 0"/>
<feBlend mode="normal" in2="shape" result="effect2_innerShadow_158_102"/>
</filter>
<linearGradient id="paint0_linear_158_102" x1="24.1449" y1="32.4177" x2="78.8361" y2="134.596" gradientUnits="userSpaceOnUse">
<stop stop-color="#07CEAA"/>
<stop offset="1" stop-color="#088C6D"/>
</linearGradient>
</defs>
</svg>
