<svg width="132" height="144" viewBox="0 0 132 144" fill="none" xmlns="http://www.w3.org/2000/svg">
<g filter="url(#filter0_di_158_84)">
<path d="M106.095 56.9017L108.754 54.0541L108.846 54.1395C109.256 54.5144 109.796 54.7145 110.351 54.6972C110.906 54.6799 111.432 54.4466 111.818 54.0469L114.91 50.7508C115.284 50.3394 115.482 49.7983 115.464 49.2426C115.445 48.6869 115.211 48.1604 114.811 47.7749L110.019 43.2685C109.609 42.8936 109.07 42.6935 108.515 42.7108C107.96 42.7281 107.434 42.9613 107.048 43.361L103.963 46.6643C103.587 47.0761 103.387 47.6187 103.406 48.1761C103.424 48.7335 103.66 49.2615 104.062 49.6473L104.155 49.7327L101.83 52.1888C93.3918 43.8924 82.3322 38.7976 70.5509 37.7796V34.6115C74.0413 34.5332 76.9489 34.1274 78.8114 32.2978C80.027 31.0804 80.6171 29.4003 80.6171 27.1506C80.6171 19.59 74.2191 8 66.3993 8C58.5795 8 52.1815 19.59 52.1815 27.1506C52.1815 29.4003 52.7716 31.0804 53.9801 32.2978C55.9279 34.2342 59.1056 34.5688 62.8733 34.6258V37.7013C51.4562 38.4304 40.6132 42.9733 32.0788 50.603C23.5444 58.2328 17.8119 68.5087 15.7983 79.7867C13.7846 91.0647 15.6063 102.693 20.9717 112.812C26.3372 122.931 34.9364 130.955 45.3938 135.601C55.8512 140.247 67.5625 141.246 78.654 138.439C89.7456 135.632 99.5766 129.181 106.574 120.117C113.572 111.053 117.332 99.9013 117.253 88.4446C117.174 76.988 113.26 65.889 106.138 56.9231L106.095 56.9017ZM55.4374 30.7814C54.6483 29.9912 54.2644 28.8023 54.2644 27.1506C54.2644 20.7434 59.9515 10.1358 66.3495 10.1358C72.7475 10.1358 78.4346 20.7434 78.4346 27.1506C78.4346 28.8023 78.0436 29.9983 77.2546 30.7814C75.9536 32.0842 73.494 32.4046 70.5011 32.4758V29.4928H71.3826C71.8709 29.4928 72.3392 29.2986 72.6845 28.9528C73.0298 28.607 73.2238 28.138 73.2238 27.649V25.9902C73.2238 25.5012 73.0298 25.0322 72.6845 24.6864C72.3392 24.3406 71.8709 24.1463 71.3826 24.1463H61.942C61.4531 24.1463 60.984 24.3404 60.6376 24.686C60.2912 25.0315 60.0956 25.5005 60.0937 25.9902V27.649C60.0956 28.1387 60.2912 28.6076 60.6376 28.9532C60.984 29.2988 61.4531 29.4929 61.942 29.4928H62.8235V32.49C59.5392 32.4402 56.8307 32.2053 55.4374 30.7814ZM66.1576 135.576C56.9019 135.576 47.854 132.827 40.1581 127.678C32.4623 122.528 26.4641 115.209 22.9221 106.645C19.3801 98.0814 18.4533 88.6583 20.259 79.5673C22.0647 70.4762 26.5218 62.1256 33.0666 55.5713C39.6114 49.017 47.9499 44.5535 57.0278 42.7452C66.1057 40.9368 75.5151 41.8649 84.0663 45.4121C92.6175 48.9592 99.9263 54.9661 105.069 62.6731C110.211 70.3802 112.955 79.4412 112.955 88.7103C112.942 101.136 108.007 113.049 99.2341 121.835C90.4606 130.621 78.5651 135.563 66.1576 135.576Z" fill="url(#paint0_linear_158_84)"/>
<path d="M66.1576 45.5609C57.6341 45.5609 49.302 48.0922 42.2151 52.8346C35.1282 57.5771 29.6047 64.3176 26.3432 72.2039C23.0817 80.0902 22.2287 88.7679 23.8921 97.1397C25.5555 105.511 29.6605 113.201 35.688 119.236C41.7155 125.272 49.3948 129.381 57.7547 131.046C66.1146 132.71 74.7796 131.855 82.6539 128.587C90.5282 125.32 97.2581 119.787 101.992 112.689C106.727 105.591 109.253 97.2464 109.252 88.7105C109.238 77.2693 104.694 66.3007 96.6147 58.2112C88.5357 50.1217 77.5822 45.5722 66.1576 45.5609ZM67.1244 129.739V118.682C67.1244 118.399 67.0121 118.128 66.8121 117.927C66.6121 117.727 66.3409 117.614 66.0581 117.614C65.7753 117.614 65.504 117.727 65.3041 117.927C65.1041 118.128 64.9917 118.399 64.9917 118.682V129.739C54.4948 129.426 44.518 125.091 37.1188 117.628C29.7196 110.165 25.4622 100.143 25.2247 89.6289H36.5989C36.8817 89.6289 37.1529 89.5163 37.3529 89.3161C37.5529 89.1158 37.6652 88.8442 37.6652 88.561C37.6652 88.2778 37.5529 88.0061 37.3529 87.8059C37.1529 87.6056 36.8817 87.4931 36.5989 87.4931H25.2247C25.5481 76.9843 29.8856 67.0004 37.3428 59.5999C44.8001 52.1994 54.8085 47.9465 65.3045 47.7181V58.0623C65.3045 58.3455 65.4169 58.6171 65.6169 58.8174C65.8168 59.0177 66.0881 59.1302 66.3709 59.1302C66.6537 59.1302 66.9249 59.0177 67.1249 58.8174C67.3249 58.6171 67.4372 58.3455 67.4372 58.0623V47.7252C77.8514 48.0621 87.7465 52.3581 95.111 59.7399C102.475 67.1216 106.756 77.035 107.083 87.4646H96.1429C95.8601 87.4646 95.5888 87.5771 95.3889 87.7774C95.1889 87.9777 95.0765 88.2493 95.0765 88.5325C95.0765 88.8157 95.1889 89.0873 95.3889 89.2876C95.5888 89.4879 95.8601 89.6004 96.1429 89.6004H107.076C106.844 100.151 102.564 110.206 95.1249 117.68C87.6857 125.154 77.6585 129.472 67.1244 129.739Z" fill="url(#paint1_linear_158_84)"/>
<path d="M70.8565 91.202H70.821C71.2826 90.3957 71.5276 89.4832 71.5319 88.5537C71.5365 87.6016 71.2924 86.6649 70.8239 85.8365C70.3554 85.008 69.6787 84.3166 68.8611 83.8309C68.0434 83.3452 67.1131 83.0821 66.1625 83.0676C65.2119 83.0531 64.2741 83.2877 63.442 83.7482L46.4233 66.7334C46.2212 66.5448 45.9538 66.4421 45.6776 66.4469C45.4013 66.4518 45.1378 66.5639 44.9424 66.7596C44.747 66.9552 44.6351 67.2192 44.6302 67.4958C44.6254 67.7725 44.7279 68.0402 44.9163 68.2427L61.7856 85.1365C60.9554 86.1867 60.5397 87.5058 60.6173 88.8429C60.695 90.1801 61.2607 91.442 62.2069 92.3887C63.1531 93.3353 64.4137 93.9007 65.749 93.9773C67.0843 94.0538 68.4011 93.6362 69.449 92.8039L76.8351 99.6739C77.0287 99.8537 77.282 99.9551 77.546 99.9586C77.693 99.96 77.8386 99.9302 77.9734 99.8713C78.1081 99.8125 78.229 99.7258 78.328 99.6169C78.4241 99.5145 78.4989 99.3941 78.5481 99.2625C78.5973 99.1309 78.62 98.9908 78.6147 98.8504C78.6094 98.71 78.5763 98.572 78.5173 98.4445C78.4583 98.317 78.3746 98.2025 78.2711 98.1077L70.8565 91.202ZM66.058 91.857C65.3994 91.8584 64.7552 91.664 64.207 91.2985C63.6588 90.9329 63.2313 90.4126 62.9786 89.8035C62.7259 89.1944 62.6594 88.5239 62.7876 87.877C62.9157 87.23 63.2327 86.6357 63.6984 86.1693C64.1641 85.7029 64.7576 85.3855 65.4036 85.2571C66.0497 85.1288 66.7192 85.1954 67.3274 85.4484C67.9356 85.7015 68.4551 86.1296 68.8202 86.6786C69.1852 87.2276 69.3793 87.8728 69.3779 88.5323C69.376 89.4135 69.0256 90.2581 68.4035 90.8812C67.7813 91.5042 66.9379 91.8551 66.058 91.857Z" fill="url(#paint2_linear_158_84)"/>
</g>
<defs>
<filter id="filter0_di_158_84" x="7" y="0" width="114.254" height="144" filterUnits="userSpaceOnUse" color-interpolation-filters="sRGB">
<feFlood flood-opacity="0" result="BackgroundImageFix"/>
<feColorMatrix in="SourceAlpha" type="matrix" values="0 0 0 0 0 0 0 0 0 0 0 0 0 0 0 0 0 0 127 0" result="hardAlpha"/>
<feOffset dx="-2" dy="-2"/>
<feGaussianBlur stdDeviation="3"/>
<feComposite in2="hardAlpha" operator="out"/>
<feColorMatrix type="matrix" values="0 0 0 0 1 0 0 0 0 1 0 0 0 0 1 0 0 0 1 0"/>
<feBlend mode="normal" in2="BackgroundImageFix" result="effect1_dropShadow_158_84"/>
<feBlend mode="normal" in="SourceGraphic" in2="effect1_dropShadow_158_84" result="shape"/>
<feColorMatrix in="SourceAlpha" type="matrix" values="0 0 0 0 0 0 0 0 0 0 0 0 0 0 0 0 0 0 127 0" result="hardAlpha"/>
<feOffset dx="1" dy="1"/>
<feGaussianBlur stdDeviation="1"/>
<feComposite in2="hardAlpha" operator="arithmetic" k2="-1" k3="1"/>
<feColorMatrix type="matrix" values="0 0 0 0 0.116521 0 0 0 0 0.0102778 0 0 0 0 0.154167 0 0 0 0.25 0"/>
<feBlend mode="normal" in2="shape" result="effect2_innerShadow_158_84"/>
</filter>
<linearGradient id="paint0_linear_158_84" x1="26.3936" y1="36.8111" x2="90.7002" y2="140.158" gradientUnits="userSpaceOnUse">
<stop stop-color="#07CEAA"/>
<stop offset="1" stop-color="#088C6D"/>
</linearGradient>
<linearGradient id="paint1_linear_158_84" x1="26.3936" y1="36.8111" x2="90.7002" y2="140.158" gradientUnits="userSpaceOnUse">
<stop stop-color="#07CEAA"/>
<stop offset="1" stop-color="#088C6D"/>
</linearGradient>
<linearGradient id="paint2_linear_158_84" x1="26.3936" y1="36.8111" x2="90.7002" y2="140.158" gradientUnits="userSpaceOnUse">
<stop stop-color="#07CEAA"/>
<stop offset="1" stop-color="#088C6D"/>
</linearGradient>
</defs>
</svg>
